<?xml version="1.0" encoding="utf-8"?>
<!-- Generator: Adobe Illustrator 16.0.0, SVG Export Plug-In . SVG Version: 6.00 Build 0)  -->
<!DOCTYPE svg PUBLIC "-//W3C//DTD SVG 1.1//EN" "http://www.w3.org/Graphics/SVG/1.1/DTD/svg11.dtd">
<svg version="1.1" id="Shape_8_copy_1_" xmlns="http://www.w3.org/2000/svg" xmlns:xlink="http://www.w3.org/1999/xlink" x="0px"
	 y="0px" width="29.159px" height="25.09px" viewBox="0 0 29.159 25.09" enable-background="new 0 0 29.159 25.09"
	 xml:space="preserve">
<path fill="#2E9BB6" d="M14.428,1c0.118,0,0.237,0.001,0.356,0.004c3.672,0.072,7.093,1.248,9.632,3.309
	c2.466,2.003,3.795,4.605,3.741,7.327c-0.109,5.571-6.133,10.104-13.427,10.104c-0.118,0-0.237-0.001-0.354-0.004
	c-1.675-0.033-3.308-0.297-4.854-0.785l-0.354-0.111L8.826,20.99l-5.257,2.265c0.535-1.942,0.863-4.732-0.729-6.779
	c-1.238-1.633-1.874-3.49-1.837-5.371C1.111,5.533,7.134,1,14.428,1 M14.428,0C6.548,0,0.124,4.904,0.002,11.085
	c-0.042,2.183,0.706,4.236,2.04,5.995h0c2.293,2.946-0.209,8.011-0.209,8.011l7.389-3.182c1.592,0.502,3.322,0.795,5.135,0.831
	c0.125,0.003,0.25,0.004,0.375,0.004c7.881,0,14.306-4.904,14.427-11.084c0.124-6.278-6.303-11.497-14.354-11.655
	C14.678,0.001,14.553,0,14.428,0L14.428,0z"/>
</svg>
