<?xml version="1.0" encoding="utf-8"?>
<!-- Generator: Adobe Illustrator 16.0.0, SVG Export Plug-In . SVG Version: 6.00 Build 0)  -->
<!DOCTYPE svg PUBLIC "-//W3C//DTD SVG 1.1//EN" "http://www.w3.org/Graphics/SVG/1.1/DTD/svg11.dtd">
<svg version="1.1" id="flag_1_" xmlns="http://www.w3.org/2000/svg" xmlns:xlink="http://www.w3.org/1999/xlink" x="0px" y="0px"
	 width="24px" height="24px" viewBox="0 0 24 24" enable-background="new 0 0 24 24" xml:space="preserve">
<g>
	
		<rect x="-5.291" y="11.897" transform="matrix(-0.3822 -0.9241 0.9241 -0.3822 -4.3246 23.4544)" fill="#FFFFFF" width="21.938" height="2.552"/>
	<path fill="#FFFFFF" d="M18.721,2.058c0,0-1.411,1.931-3.756,1.931c-1.269,0-2.81-0.564-4.548-2.302v0.008
		c-1.078-1.106-2.113-1.491-3.03-1.491c-2.088,0-3.569,1.991-3.569,1.991l4.971,11.941c0,0,0.881-2.501,3.229-2.501
		c1.247,0,2.909,0.706,5.073,2.87v-0.008c1.079,1.106,2.114,1.491,3.033,1.491c2.089,0,3.57-1.989,3.57-1.989L18.721,2.058z
		 M20.123,13.988c-0.488,0-1.027-0.299-1.601-0.887c-0.043-0.044-0.087-0.086-0.133-0.125c-2.281-2.249-4.367-3.342-6.373-3.342
		c-1.036,0-1.91,0.293-2.63,0.735L6.183,2.674c0.354-0.255,0.78-0.471,1.203-0.471c0.487,0,1.025,0.298,1.598,0.887
		c0.044,0.045,0.089,0.088,0.137,0.128c1.881,1.838,3.847,2.771,5.844,2.771c1.15,0,2.131-0.306,2.929-0.715l3.433,8.245
		C20.973,13.773,20.545,13.988,20.123,13.988z"/>
</g>
</svg>
