<?xml version="1.0" encoding="utf-8"?>
<!-- Generator: Adobe Illustrator 16.0.0, SVG Export Plug-In . SVG Version: 6.00 Build 0)  -->
<!DOCTYPE svg PUBLIC "-//W3C//DTD SVG 1.1//EN" "http://www.w3.org/Graphics/SVG/1.1/DTD/svg11.dtd">
<svg version="1.1" xmlns="http://www.w3.org/2000/svg" xmlns:xlink="http://www.w3.org/1999/xlink" x="0px" y="0px"
	 width="416.62px" height="389.808px" viewBox="0 0 416.62 389.808" enable-background="new 0 0 416.62 389.808"
	 xml:space="preserve">
<g id="Patient_Data">
</g>
<g id="top__x7C__copy_8_1_" enable-background="new    ">
</g>
<g id="top__x7C__copy_10_1_" enable-background="new    ">
</g>
<g id="border_copy_1_" enable-background="new    ">
</g>
<g id="border_copy_3_1_" enable-background="new    ">
	<g>
		<rect x="188.329" y="25.286" fill="#2E9BB6" width="1.293" height="68.972"/>
		<path fill="#2E9BB6" d="M87.372,209.978l-0.017-0.277l-1.497,0.086l0.017,0.285c3.272,51.822,44.821,93.309,96.647,96.504
			l0.141,0.008l0.094-1.498l-0.142-0.008C131.542,301.931,90.596,261.046,87.372,209.978z"/>
		<path fill="#2E9BB6" d="M195.453,306.576c51.897-3.215,93.442-44.775,96.636-96.678l0.006-0.102l-1.498-0.086l-0.006,0.1
			c-3.146,51.145-44.088,92.102-95.225,95.268l-0.163,0.008l0.081,1.498L195.453,306.576z"/>
		<path fill="#2E9BB6" d="M195.237,100.342v1.502c51.252,3.11,92.246,44.104,95.357,95.351l0.006,0.104l1.498-0.086l-0.006-0.105
			c-3.158-52.006-44.758-93.604-96.771-96.76L195.237,100.342z"/>
		<path fill="#2E9BB6" d="M87.374,196.914c3.243-51.067,44.205-91.937,95.381-95.071l-0.086-1.498l-0.105,0.008
			c-51.829,3.174-93.396,44.646-96.687,96.468l-0.024,0.41l1.497,0.086L87.374,196.914z"/>
		<path fill="#2E9BB6" d="M283.942,203.464c0-52.364-42.602-94.966-94.966-94.966c-52.365,0-94.967,42.602-94.967,94.966
			c0,52.365,42.602,94.967,94.967,94.967C241.34,298.431,283.942,255.83,283.942,203.464z M188.976,296.931
			c-51.538,0-93.467-41.93-93.467-93.467s41.929-93.466,93.467-93.466c51.536,0,93.466,41.929,93.466,93.466
			S240.512,296.931,188.976,296.931z"/>
		<path fill="#2E9BB6" d="M279.239,105.869c-0.492,0-0.994-0.114-1.504-0.342c-0.51-0.228-0.975-0.522-1.395-0.882l-1.512,1.818
			c0.6,0.564,1.281,0.987,2.043,1.269s1.527,0.423,2.295,0.423c0.695,0,1.32-0.099,1.871-0.297c0.553-0.198,1.018-0.462,1.396-0.792
			c0.377-0.33,0.666-0.714,0.863-1.152s0.297-0.903,0.297-1.395c0-0.828-0.207-1.494-0.621-1.998s-0.98-0.9-1.701-1.188
			l-1.512-0.612c-0.252-0.108-0.486-0.207-0.701-0.297c-0.217-0.09-0.406-0.186-0.568-0.288c-0.162-0.102-0.287-0.216-0.377-0.342
			s-0.135-0.279-0.135-0.459c0-0.336,0.135-0.597,0.404-0.783c0.27-0.186,0.633-0.279,1.09-0.279c0.467,0,0.893,0.081,1.277,0.243
			c0.383,0.162,0.768,0.393,1.152,0.693l1.35-1.674c-0.504-0.504-1.09-0.888-1.756-1.152c-0.666-0.264-1.34-0.396-2.023-0.396
			c-0.613,0-1.174,0.09-1.684,0.27c-0.51,0.18-0.951,0.429-1.324,0.747c-0.371,0.318-0.66,0.69-0.863,1.116
			s-0.307,0.879-0.307,1.359c0,0.432,0.066,0.819,0.199,1.161c0.131,0.342,0.309,0.642,0.531,0.9
			c0.221,0.258,0.473,0.483,0.756,0.675c0.281,0.192,0.572,0.348,0.873,0.468l1.529,0.648c0.252,0.108,0.482,0.207,0.693,0.297
			c0.209,0.09,0.389,0.186,0.539,0.288s0.264,0.219,0.342,0.351s0.117,0.288,0.117,0.468c0,0.348-0.135,0.624-0.404,0.828
			S279.79,105.869,279.239,105.869z"/>
		<path fill="#2E9BB6" d="M288.004,101.909c0.553-0.576,1.057-0.864,1.512-0.864c0.385,0,0.664,0.12,0.838,0.36
			c0.174,0.24,0.26,0.684,0.26,1.332v5.202h2.646v-6.03c0.576-0.576,1.086-0.864,1.529-0.864c0.385,0,0.664,0.12,0.838,0.36
			c0.174,0.24,0.262,0.684,0.262,1.332v5.202h2.645v-5.544c0-1.116-0.225-1.995-0.674-2.637c-0.451-0.642-1.156-0.963-2.115-0.963
			c-0.6,0-1.119,0.147-1.557,0.441c-0.439,0.294-0.855,0.646-1.252,1.053c-0.229-0.48-0.537-0.849-0.926-1.107
			c-0.391-0.258-0.904-0.387-1.539-0.387c-0.588,0-1.094,0.135-1.514,0.405c-0.42,0.27-0.814,0.591-1.188,0.963h-0.072l-0.18-1.152
			h-2.16v8.928h2.646V101.909z"/>
		<path fill="#2E9BB6" d="M300.297,105.455c0,0.384,0.064,0.738,0.189,1.062c0.127,0.324,0.303,0.609,0.531,0.855
			s0.504,0.438,0.828,0.576c0.324,0.138,0.689,0.207,1.098,0.207c0.504,0,0.969-0.105,1.395-0.315
			c0.426-0.209,0.832-0.483,1.215-0.819h0.055l0.197,0.918h2.16v-5.112c0-1.38-0.303-2.397-0.908-3.051
			c-0.605-0.654-1.484-0.981-2.637-0.981c-0.709,0-1.377,0.108-2.008,0.324c-0.629,0.216-1.232,0.498-1.809,0.846l0.936,1.746
			c0.432-0.252,0.84-0.45,1.225-0.594c0.385-0.144,0.768-0.216,1.152-0.216c0.479,0,0.828,0.117,1.043,0.351
			c0.217,0.234,0.336,0.549,0.361,0.945c-1.766,0.18-3.043,0.534-3.834,1.062C300.694,103.787,300.297,104.519,300.297,105.455z
			 M303.358,104.357c0.359-0.252,1.014-0.444,1.963-0.576v1.566c-0.24,0.24-0.469,0.426-0.686,0.558
			c-0.215,0.132-0.479,0.198-0.791,0.198s-0.561-0.069-0.748-0.207c-0.186-0.138-0.277-0.351-0.277-0.639
			C302.819,104.909,302.999,104.609,303.358,104.357z"/>
		<path fill="#2E9BB6" d="M312.817,102.755c0.24-0.612,0.543-1.038,0.908-1.278c0.367-0.24,0.719-0.36,1.055-0.36
			c0.191,0,0.359,0.012,0.504,0.036c0.143,0.024,0.299,0.061,0.467,0.108l0.432-2.286c-0.131-0.06-0.277-0.105-0.439-0.135
			c-0.162-0.03-0.369-0.045-0.621-0.045c-0.457,0-0.912,0.144-1.369,0.432c-0.455,0.288-0.846,0.738-1.17,1.35h-0.072l-0.18-1.566
			h-2.16v8.928h2.646V102.755z"/>
		<path fill="#2E9BB6" d="M318.174,104.699c0,0.516,0.057,0.987,0.17,1.413c0.113,0.426,0.295,0.79,0.541,1.089
			c0.244,0.3,0.563,0.534,0.953,0.702s0.861,0.252,1.414,0.252c0.432,0,0.809-0.036,1.133-0.108
			c0.324-0.072,0.605-0.144,0.846-0.216l-0.414-1.926c-0.119,0.048-0.254,0.09-0.404,0.126c-0.15,0.036-0.297,0.054-0.441,0.054
			c-0.348,0-0.627-0.111-0.836-0.333c-0.211-0.222-0.316-0.585-0.316-1.089v-3.582h2.143v-2.07h-2.143v-2.376h-2.195l-0.307,2.376
			l-1.367,0.108v1.962h1.225V104.699z"/>
		<path fill="#2E9BB6" d="M325.967,106.625c0.504,0.504,1.092,0.885,1.764,1.143s1.387,0.387,2.143,0.387
			c0.732,0,1.412-0.144,2.043-0.432c0.631-0.288,1.191-0.72,1.684-1.296l-1.459-1.602c-0.287,0.312-0.611,0.564-0.971,0.756
			c-0.361,0.192-0.781,0.288-1.262,0.288c-0.863,0-1.553-0.333-2.068-0.999c-0.518-0.666-0.775-1.605-0.775-2.817
			c0-0.587,0.076-1.116,0.227-1.584c0.148-0.468,0.355-0.864,0.619-1.188c0.266-0.324,0.574-0.573,0.928-0.747
			s0.734-0.261,1.143-0.261s0.766,0.078,1.072,0.234c0.305,0.156,0.607,0.372,0.908,0.648l1.459-1.638
			c-0.396-0.408-0.893-0.765-1.486-1.071c-0.594-0.306-1.256-0.459-1.988-0.459c-0.756,0-1.473,0.138-2.15,0.414
			c-0.68,0.276-1.273,0.678-1.783,1.206c-0.51,0.528-0.914,1.173-1.215,1.935c-0.301,0.762-0.449,1.629-0.449,2.601
			c0,0.984,0.143,1.851,0.432,2.601C325.067,105.494,325.463,106.121,325.967,106.625z"/>
		<path fill="#2E9BB6" d="M335.577,107.336c0.186,0.258,0.436,0.459,0.748,0.603c0.311,0.144,0.695,0.216,1.15,0.216
			c0.301,0,0.563-0.021,0.783-0.063c0.223-0.042,0.406-0.093,0.549-0.153l-0.322-1.962c-0.072,0.024-0.131,0.036-0.172,0.036
			c-0.043,0-0.094,0-0.152,0c-0.109,0-0.213-0.054-0.316-0.162c-0.102-0.108-0.152-0.3-0.152-0.576v-9.954h-2.646v9.846
			c0,0.456,0.043,0.867,0.127,1.233C335.256,106.766,335.391,107.078,335.577,107.336z"/>
		<path fill="#2E9BB6" d="M341.542,97.697c0.455,0,0.824-0.128,1.105-0.387c0.283-0.258,0.424-0.591,0.424-0.999
			c0-0.408-0.141-0.738-0.424-0.99c-0.281-0.252-0.65-0.378-1.105-0.378c-0.445,0-0.811,0.126-1.1,0.378
			c-0.287,0.252-0.432,0.583-0.432,0.99c0,0.408,0.145,0.741,0.432,0.999C340.731,97.568,341.096,97.697,341.542,97.697z"/>
		<rect x="340.227" y="99.011" fill="#2E9BB6" width="2.646" height="8.928"/>
		<path fill="#2E9BB6" d="M345.872,106.931c0.396,0.396,0.861,0.699,1.396,0.909c0.533,0.21,1.111,0.315,1.736,0.315
			c0.492,0,1.002-0.09,1.529-0.27c0.529-0.18,1.008-0.461,1.441-0.846l-1.063-1.674c-0.217,0.168-0.457,0.318-0.721,0.45
			c-0.264,0.132-0.557,0.198-0.881,0.198c-0.576,0-1.055-0.228-1.432-0.684c-0.379-0.456-0.566-1.074-0.566-1.854
			s0.186-1.398,0.557-1.854c0.373-0.456,0.883-0.684,1.531-0.684c0.406,0,0.82,0.174,1.242,0.522l1.205-1.638
			c-0.301-0.312-0.672-0.561-1.115-0.747c-0.445-0.186-0.943-0.279-1.494-0.279c-0.613,0-1.201,0.105-1.764,0.315
			c-0.564,0.21-1.061,0.513-1.486,0.909s-0.764,0.885-1.016,1.467c-0.252,0.583-0.379,1.245-0.379,1.989s0.113,1.407,0.342,1.989
			C345.165,106.046,345.477,106.535,345.872,106.931z"/>
		<polygon fill="#2E9BB6" points="355.971,105.743 357.104,104.465 359.12,107.939 361.983,107.939 358.616,102.683 361.749,99.011 
			358.868,99.011 356.043,102.557 355.971,102.557 355.971,95.321 353.397,95.321 353.397,107.939 355.971,107.939 		"/>
		<polygon fill="#2E9BB6" points="282.442,120.797 282.442,120.077 275.944,120.077 275.944,131.939 282.622,131.939 
			282.622,131.219 276.772,131.219 276.772,125.999 281.524,125.999 281.524,125.279 276.772,125.279 276.772,120.797 		"/>
		<path fill="#2E9BB6" d="M285.629,124.145c0-0.492-0.012-1.023-0.035-1.593c-0.025-0.57-0.049-1.107-0.072-1.611h0.072l0.936,2.61
			l2.555,7.092h0.738l2.539-7.092l0.936-2.61h0.072c-0.025,0.504-0.049,1.041-0.072,1.611c-0.023,0.57-0.035,1.101-0.035,1.593
			v7.794h0.809v-11.862h-1.17l-2.484,6.966l-0.898,2.628h-0.072l-0.936-2.628l-2.484-6.966h-1.17v11.862h0.773V124.145z"/>
		<path fill="#2E9BB6" d="M304.557,123.209c0-0.564-0.094-1.044-0.279-1.44s-0.447-0.72-0.783-0.972s-0.744-0.435-1.225-0.549
			c-0.48-0.114-1.014-0.171-1.602-0.171h-3.402v11.862h0.828v-5.454h2.52l3.223,5.454h0.953l-3.275-5.508
			c0.936-0.12,1.678-0.45,2.223-0.99C304.284,124.901,304.557,124.157,304.557,123.209z M302.874,125.162
			c-0.559,0.426-1.365,0.639-2.422,0.639h-2.357v-5.022h2.357c1.045,0,1.85,0.183,2.412,0.549c0.564,0.366,0.848,0.993,0.848,1.881
			C303.711,124.085,303.432,124.736,302.874,125.162z"/>
		<rect x="310.928" y="120.077" fill="#2E9BB6" width="0.828" height="11.862"/>
		<path fill="#2E9BB6" d="M321.211,131.939v-5.544c0-1.128-0.209-1.962-0.629-2.502s-1.08-0.81-1.98-0.81
			c-0.6,0-1.135,0.147-1.602,0.441c-0.469,0.294-0.924,0.663-1.369,1.107h-0.053l-0.072-1.332h-0.684v8.64h0.791v-6.516
			c0.527-0.54,1.002-0.945,1.422-1.215s0.889-0.405,1.404-0.405c0.707,0,1.215,0.219,1.521,0.657
			c0.305,0.438,0.459,1.119,0.459,2.043v5.436H321.211z"/>
		<path fill="#2E9BB6" d="M322.917,123.983h1.35v5.562c0,0.384,0.033,0.738,0.1,1.062c0.066,0.324,0.184,0.6,0.352,0.828
			s0.389,0.405,0.666,0.531c0.275,0.126,0.623,0.189,1.043,0.189c0.182,0,0.396-0.03,0.648-0.09s0.504-0.138,0.756-0.234
			l-0.215-0.648c-0.156,0.072-0.334,0.135-0.531,0.189c-0.199,0.054-0.381,0.081-0.549,0.081c-0.301,0-0.543-0.045-0.73-0.135
			c-0.186-0.09-0.332-0.216-0.439-0.378c-0.109-0.162-0.184-0.354-0.227-0.576c-0.041-0.222-0.063-0.471-0.063-0.747v-5.634h2.502
			v-0.684h-2.502v-2.502h-0.684l-0.107,2.502l-1.369,0.072V123.983z"/>
		<path fill="#2E9BB6" d="M331.018,123.398c-0.449,0.21-0.852,0.51-1.205,0.9c-0.354,0.39-0.637,0.867-0.846,1.431
			c-0.211,0.564-0.316,1.2-0.316,1.908s0.105,1.341,0.316,1.899c0.209,0.558,0.494,1.032,0.855,1.422
			c0.359,0.39,0.781,0.687,1.268,0.891c0.486,0.204,1.006,0.306,1.557,0.306c0.637,0,1.162-0.09,1.576-0.27
			c0.414-0.18,0.795-0.372,1.143-0.576l-0.324-0.612c-0.324,0.24-0.674,0.429-1.053,0.567c-0.379,0.138-0.801,0.207-1.27,0.207
			c-0.492,0-0.936-0.093-1.332-0.279c-0.395-0.186-0.734-0.444-1.016-0.774c-0.283-0.33-0.502-0.726-0.658-1.188
			s-0.24-0.963-0.252-1.503h6.229c0.023-0.108,0.035-0.216,0.035-0.324s0-0.216,0-0.324c0-1.272-0.293-2.256-0.881-2.952
			c-0.588-0.696-1.398-1.044-2.43-1.044C331.934,123.083,331.469,123.188,331.018,123.398z M334.286,124.604
			c0.457,0.558,0.684,1.395,0.684,2.511h-5.508c0.049-0.516,0.16-0.981,0.334-1.395c0.174-0.414,0.395-0.765,0.666-1.053
			c0.27-0.288,0.572-0.51,0.908-0.666c0.336-0.156,0.689-0.234,1.063-0.234C333.211,123.767,333.831,124.046,334.286,124.604z"/>
		<path fill="#2E9BB6" d="M337.854,124.901c-0.156,0.372-0.232,0.78-0.232,1.224c0,0.528,0.109,0.996,0.332,1.404
			c0.223,0.408,0.471,0.732,0.746,0.972v0.072c-0.191,0.132-0.395,0.333-0.611,0.603c-0.215,0.27-0.324,0.597-0.324,0.981
			c0,0.336,0.072,0.619,0.217,0.846c0.145,0.228,0.324,0.408,0.539,0.54v0.072c-0.395,0.288-0.707,0.612-0.936,0.972
			s-0.342,0.732-0.342,1.116c0,0.731,0.318,1.314,0.953,1.746c0.637,0.432,1.5,0.648,2.594,0.648c0.623,0,1.188-0.081,1.691-0.243
			s0.932-0.378,1.287-0.648c0.354-0.27,0.627-0.583,0.818-0.936c0.191-0.354,0.289-0.717,0.289-1.089
			c0-0.684-0.232-1.186-0.693-1.503c-0.463-0.317-1.18-0.477-2.152-0.477h-1.854c-0.648,0-1.086-0.111-1.314-0.333
			c-0.227-0.222-0.342-0.489-0.342-0.801c0-0.288,0.07-0.528,0.207-0.72c0.139-0.192,0.303-0.366,0.496-0.522
			c0.203,0.12,0.434,0.21,0.693,0.27c0.258,0.061,0.506,0.09,0.746,0.09c0.42,0,0.813-0.075,1.18-0.225
			c0.365-0.15,0.684-0.36,0.953-0.63s0.482-0.591,0.639-0.963s0.234-0.78,0.234-1.224c0-0.456-0.09-0.873-0.27-1.251
			s-0.408-0.687-0.684-0.927h2.016v-0.666h-2.934c-0.133-0.06-0.295-0.111-0.486-0.153c-0.193-0.042-0.408-0.063-0.648-0.063
			c-0.42,0-0.816,0.075-1.188,0.225c-0.373,0.15-0.697,0.36-0.973,0.63S338.01,124.529,337.854,124.901z M339.133,131.813
			c0.227,0.06,0.439,0.099,0.639,0.117c0.197,0.018,0.344,0.027,0.441,0.027h1.854c0.648,0,1.143,0.099,1.484,0.297
			c0.342,0.198,0.514,0.537,0.514,1.017c0,0.276-0.076,0.543-0.225,0.801c-0.15,0.258-0.363,0.489-0.641,0.693
			c-0.275,0.204-0.611,0.369-1.008,0.495c-0.395,0.126-0.834,0.189-1.313,0.189c-0.926,0-1.637-0.168-2.133-0.504
			c-0.5-0.336-0.748-0.774-0.748-1.314c0-0.312,0.09-0.624,0.27-0.936S338.737,132.089,339.133,131.813z M339.079,124.379
			c0.203-0.204,0.441-0.363,0.711-0.477c0.27-0.114,0.561-0.171,0.873-0.171c0.301,0,0.588,0.057,0.863,0.171
			c0.277,0.114,0.514,0.273,0.711,0.477c0.199,0.204,0.357,0.456,0.479,0.756c0.119,0.3,0.18,0.63,0.18,0.99s-0.061,0.69-0.18,0.99
			c-0.121,0.3-0.283,0.558-0.486,0.774c-0.205,0.216-0.441,0.381-0.711,0.495c-0.27,0.114-0.555,0.171-0.855,0.171
			s-0.584-0.057-0.855-0.171c-0.27-0.114-0.51-0.279-0.719-0.495c-0.211-0.216-0.375-0.474-0.496-0.774
			c-0.119-0.3-0.18-0.63-0.18-0.99c0-0.372,0.061-0.705,0.18-0.999C338.713,124.832,338.874,124.583,339.079,124.379z"/>
		<path fill="#2E9BB6" d="M348.569,124.334c0.426-0.33,0.832-0.495,1.215-0.495c0.168,0,0.307,0.009,0.414,0.027
			c0.109,0.018,0.234,0.057,0.379,0.117l0.18-0.72c-0.145-0.072-0.281-0.12-0.414-0.144s-0.281-0.036-0.449-0.036
			c-0.518,0-0.982,0.168-1.396,0.504c-0.412,0.336-0.764,0.774-1.053,1.314h-0.053l-0.072-1.602h-0.684v8.64h0.791v-5.886
			C347.762,125.237,348.143,124.664,348.569,124.334z"/>
		<path fill="#2E9BB6" d="M353.86,124.127c0.48-0.228,1.014-0.342,1.602-0.342c0.42,0,0.766,0.081,1.035,0.243
			c0.271,0.162,0.48,0.372,0.631,0.63c0.15,0.258,0.252,0.552,0.305,0.882c0.055,0.33,0.076,0.657,0.064,0.981
			c-1.92,0.216-3.33,0.576-4.23,1.08s-1.35,1.23-1.35,2.178c0,0.408,0.064,0.762,0.197,1.062c0.133,0.3,0.314,0.546,0.549,0.738
			s0.502,0.336,0.801,0.432c0.301,0.096,0.625,0.144,0.973,0.144c0.576,0,1.119-0.135,1.629-0.405s0.986-0.579,1.432-0.927h0.035
			l0.09,1.116h0.666v-5.526c0-0.468-0.045-0.903-0.135-1.305c-0.09-0.402-0.242-0.753-0.459-1.053
			c-0.215-0.3-0.498-0.537-0.846-0.711c-0.348-0.174-0.779-0.261-1.297-0.261c-0.348,0-0.684,0.039-1.008,0.117
			s-0.621,0.171-0.891,0.279s-0.516,0.228-0.738,0.36c-0.221,0.132-0.41,0.252-0.566,0.36l0.359,0.594
			C352.997,124.577,353.379,124.355,353.86,124.127z M357.497,130.067c-0.541,0.456-1.039,0.804-1.494,1.044
			c-0.457,0.24-0.936,0.36-1.439,0.36c-0.492,0-0.918-0.132-1.279-0.396c-0.359-0.264-0.539-0.708-0.539-1.332
			c0-0.336,0.08-0.642,0.242-0.918c0.162-0.276,0.43-0.522,0.801-0.738c0.373-0.216,0.861-0.402,1.467-0.558
			c0.607-0.156,1.354-0.288,2.242-0.396V130.067z"/>
		<path fill="#2E9BB6" d="M361.387,120.797l-0.107,2.502l-1.369,0.072v0.612h1.35v5.562c0,0.384,0.033,0.738,0.1,1.062
			c0.066,0.324,0.184,0.6,0.352,0.828s0.389,0.405,0.666,0.531c0.275,0.126,0.623,0.189,1.043,0.189c0.182,0,0.396-0.03,0.648-0.09
			s0.504-0.138,0.756-0.234l-0.215-0.648c-0.156,0.072-0.334,0.135-0.531,0.189c-0.199,0.054-0.381,0.081-0.549,0.081
			c-0.301,0-0.543-0.045-0.73-0.135c-0.186-0.09-0.332-0.216-0.439-0.378c-0.109-0.162-0.184-0.354-0.227-0.576
			c-0.041-0.222-0.063-0.471-0.063-0.747v-5.634h2.502v-0.684h-2.502v-2.502H361.387z"/>
		<path fill="#2E9BB6" d="M367.073,121.211c0.203,0,0.375-0.066,0.512-0.198c0.139-0.132,0.207-0.3,0.207-0.504
			c0-0.228-0.068-0.405-0.207-0.531c-0.137-0.126-0.309-0.189-0.512-0.189c-0.205,0-0.377,0.063-0.514,0.189
			c-0.139,0.126-0.207,0.303-0.207,0.531c0,0.205,0.068,0.372,0.207,0.504C366.696,121.145,366.868,121.211,367.073,121.211z"/>
		<rect x="366.659" y="123.299" fill="#2E9BB6" width="0.791" height="8.64"/>
		<path fill="#2E9BB6" d="M370.981,130.967c0.355,0.384,0.766,0.678,1.234,0.882c0.467,0.204,0.959,0.306,1.475,0.306
			c0.518,0,1.012-0.102,1.486-0.306c0.473-0.204,0.887-0.498,1.242-0.882c0.354-0.384,0.635-0.855,0.846-1.413
			c0.209-0.558,0.314-1.197,0.314-1.917c0-0.72-0.105-1.365-0.314-1.935c-0.211-0.57-0.492-1.047-0.846-1.431
			c-0.355-0.384-0.77-0.678-1.242-0.882c-0.475-0.204-0.969-0.306-1.486-0.306c-0.516,0-1.008,0.102-1.475,0.306
			c-0.469,0.204-0.879,0.498-1.234,0.882c-0.354,0.384-0.635,0.861-0.846,1.431c-0.209,0.57-0.314,1.215-0.314,1.935
			c0,0.72,0.105,1.359,0.314,1.917C370.346,130.112,370.627,130.583,370.981,130.967z M370.883,126.071
			c0.156-0.468,0.369-0.873,0.639-1.215s0.59-0.606,0.963-0.792c0.371-0.186,0.773-0.279,1.205-0.279
			c0.434,0,0.838,0.093,1.217,0.279c0.377,0.186,0.701,0.45,0.971,0.792s0.482,0.747,0.639,1.215
			c0.156,0.468,0.234,0.99,0.234,1.566c0,0.564-0.078,1.08-0.234,1.548c-0.156,0.468-0.369,0.87-0.639,1.206
			s-0.594,0.597-0.971,0.783c-0.379,0.187-0.783,0.279-1.217,0.279c-0.432,0-0.834-0.093-1.205-0.279
			c-0.373-0.186-0.693-0.447-0.963-0.783s-0.482-0.738-0.639-1.206c-0.156-0.468-0.234-0.984-0.234-1.548
			C370.649,127.061,370.727,126.539,370.883,126.071z"/>
		<path fill="#2E9BB6" d="M380.756,125.423c0.527-0.54,1.002-0.945,1.422-1.215s0.887-0.405,1.404-0.405
			c0.707,0,1.215,0.219,1.52,0.657c0.307,0.438,0.459,1.119,0.459,2.043v5.436h0.793v-5.544c0-1.128-0.211-1.962-0.631-2.502
			s-1.08-0.81-1.98-0.81c-0.6,0-1.133,0.147-1.602,0.441c-0.467,0.294-0.924,0.663-1.367,1.107h-0.055l-0.072-1.332h-0.684v8.64
			h0.793V125.423z"/>
		<path fill="#2E9BB6" d="M276.682,289.75c0.516,0.504,1.119,0.887,1.809,1.145s1.432,0.387,2.223,0.387
			c0.828,0,1.584-0.139,2.27-0.414c0.684-0.277,1.234-0.613,1.656-1.008v-5.4h-4.285v2.16h1.943v2.016
			c-0.143,0.119-0.33,0.211-0.557,0.27c-0.229,0.061-0.463,0.09-0.703,0.09c-1.104,0-1.928-0.332-2.475-0.998
			s-0.818-1.605-0.818-2.818c0-0.586,0.074-1.115,0.225-1.584c0.15-0.467,0.363-0.863,0.639-1.188s0.604-0.572,0.98-0.746
			c0.379-0.174,0.795-0.262,1.252-0.262c0.504,0,0.914,0.078,1.232,0.234s0.621,0.371,0.91,0.648l1.457-1.639
			c-0.385-0.396-0.879-0.75-1.484-1.063c-0.605-0.311-1.324-0.467-2.15-0.467c-0.793,0-1.539,0.137-2.242,0.414
			c-0.701,0.275-1.314,0.678-1.836,1.205c-0.521,0.529-0.936,1.174-1.242,1.936c-0.305,0.762-0.459,1.629-0.459,2.602
			c0,0.982,0.146,1.85,0.441,2.6C275.76,288.619,276.167,289.246,276.682,289.75z"/>
		<path fill="#2E9BB6" d="M286.86,278.447v9.846c0,0.455,0.043,0.867,0.127,1.232c0.084,0.367,0.219,0.678,0.404,0.936
			c0.186,0.26,0.436,0.459,0.748,0.604c0.311,0.145,0.695,0.217,1.15,0.217c0.301,0,0.563-0.021,0.783-0.064
			c0.223-0.041,0.406-0.092,0.549-0.152l-0.322-1.961c-0.072,0.023-0.131,0.035-0.172,0.035c-0.043,0-0.094,0-0.152,0
			c-0.109,0-0.213-0.055-0.316-0.162c-0.102-0.107-0.152-0.299-0.152-0.576v-9.953H286.86z"/>
		<path fill="#2E9BB6" d="M291.887,282.136v5.545c0,1.127,0.219,2.01,0.658,2.645c0.438,0.637,1.143,0.955,2.113,0.955
			c0.613,0,1.139-0.129,1.576-0.387s0.848-0.615,1.232-1.072h0.055l0.197,1.242h2.16v-8.928h-2.646v5.904
			c-0.264,0.348-0.51,0.6-0.736,0.756c-0.229,0.156-0.512,0.234-0.848,0.234c-0.383,0-0.666-0.121-0.846-0.361
			c-0.18-0.238-0.27-0.684-0.27-1.332v-5.201H291.887z"/>
		<path fill="#2E9BB6" d="M306.44,284.062c0.408,0,0.822,0.174,1.242,0.521l1.207-1.637c-0.301-0.313-0.674-0.561-1.117-0.748
			c-0.443-0.186-0.941-0.279-1.494-0.279c-0.611,0-1.199,0.105-1.764,0.316c-0.564,0.209-1.059,0.512-1.484,0.908
			s-0.766,0.885-1.018,1.467s-0.377,1.246-0.377,1.99s0.113,1.406,0.342,1.988c0.227,0.582,0.539,1.07,0.936,1.467
			s0.861,0.699,1.395,0.908c0.533,0.211,1.113,0.316,1.736,0.316c0.492,0,1.002-0.09,1.531-0.271
			c0.527-0.18,1.008-0.461,1.439-0.846l-1.063-1.674c-0.215,0.168-0.455,0.318-0.719,0.451c-0.266,0.131-0.559,0.197-0.883,0.197
			c-0.576,0-1.053-0.229-1.432-0.684c-0.377-0.457-0.566-1.074-0.566-1.854c0-0.781,0.186-1.398,0.559-1.855
			C305.282,284.291,305.792,284.062,306.44,284.062z"/>
		<path fill="#2E9BB6" d="M311.067,290.056c0.402,0.396,0.867,0.699,1.395,0.908c0.527,0.211,1.074,0.316,1.639,0.316
			s1.107-0.105,1.629-0.316c0.521-0.209,0.984-0.512,1.385-0.908c0.402-0.396,0.725-0.885,0.965-1.467
			c0.238-0.582,0.359-1.244,0.359-1.988s-0.121-1.408-0.359-1.99c-0.24-0.582-0.563-1.07-0.965-1.467
			c-0.4-0.396-0.863-0.699-1.385-0.908c-0.521-0.211-1.064-0.316-1.629-0.316s-1.111,0.105-1.639,0.316
			c-0.527,0.209-0.992,0.512-1.395,0.908s-0.723,0.885-0.963,1.467s-0.359,1.246-0.359,1.99s0.119,1.406,0.359,1.988
			S310.665,289.66,311.067,290.056z M312.868,284.746c0.27-0.455,0.68-0.684,1.232-0.684c0.539,0,0.947,0.229,1.223,0.684
			c0.277,0.457,0.414,1.074,0.414,1.855c0,0.779-0.137,1.396-0.414,1.854c-0.275,0.455-0.684,0.684-1.223,0.684
			c-0.553,0-0.963-0.229-1.232-0.684c-0.271-0.457-0.406-1.074-0.406-1.854C312.461,285.82,312.596,285.203,312.868,284.746z"/>
		<path fill="#2E9BB6" d="M323.77,291.281c0.697,0,1.32-0.1,1.873-0.297c0.551-0.199,1.018-0.463,1.395-0.793
			c0.379-0.33,0.666-0.713,0.863-1.152c0.199-0.438,0.299-0.902,0.299-1.395c0-0.828-0.207-1.494-0.621-1.998
			s-0.982-0.9-1.701-1.188l-1.514-0.611c-0.252-0.109-0.484-0.207-0.701-0.299c-0.217-0.09-0.404-0.186-0.566-0.287
			s-0.289-0.217-0.379-0.342c-0.09-0.127-0.135-0.279-0.135-0.459c0-0.336,0.135-0.598,0.404-0.783
			c0.271-0.186,0.633-0.279,1.09-0.279c0.469,0,0.895,0.082,1.277,0.244c0.385,0.16,0.768,0.393,1.152,0.691l1.35-1.674
			c-0.504-0.504-1.088-0.887-1.754-1.152c-0.666-0.264-1.342-0.395-2.025-0.395c-0.611,0-1.174,0.09-1.684,0.27
			s-0.951,0.43-1.322,0.746c-0.373,0.318-0.66,0.691-0.863,1.117c-0.205,0.426-0.307,0.879-0.307,1.359
			c0,0.432,0.066,0.818,0.197,1.16c0.133,0.342,0.309,0.643,0.531,0.9s0.475,0.482,0.756,0.674c0.283,0.193,0.574,0.35,0.873,0.469
			l1.531,0.648c0.252,0.107,0.482,0.207,0.691,0.297c0.211,0.09,0.391,0.186,0.541,0.287c0.15,0.104,0.264,0.221,0.342,0.352
			c0.078,0.133,0.117,0.289,0.117,0.469c0,0.348-0.135,0.623-0.404,0.828c-0.271,0.203-0.682,0.305-1.234,0.305
			c-0.492,0-0.992-0.113-1.502-0.342c-0.512-0.227-0.977-0.521-1.396-0.881l-1.512,1.816c0.6,0.564,1.281,0.988,2.043,1.27
			S323.002,291.281,323.77,291.281z"/>
		<path fill="#2E9BB6" d="M329.846,282.136v5.545c0,1.127,0.219,2.01,0.656,2.645c0.438,0.637,1.143,0.955,2.115,0.955
			c0.611,0,1.137-0.129,1.574-0.387c0.439-0.258,0.85-0.615,1.234-1.072h0.053l0.199,1.242h2.16v-8.928h-2.646v5.904
			c-0.264,0.348-0.51,0.6-0.738,0.756s-0.51,0.234-0.846,0.234c-0.385,0-0.666-0.121-0.846-0.361
			c-0.18-0.238-0.271-0.684-0.271-1.332v-5.201H329.846z"/>
		<path fill="#2E9BB6" d="M345.653,281.964c-0.162-0.029-0.369-0.045-0.621-0.045c-0.455,0-0.912,0.145-1.367,0.434
			c-0.457,0.287-0.846,0.736-1.17,1.35h-0.072l-0.18-1.566h-2.16v8.928h2.646v-5.184c0.238-0.611,0.541-1.037,0.908-1.277
			c0.365-0.24,0.717-0.361,1.053-0.361c0.191,0,0.359,0.012,0.504,0.037c0.145,0.023,0.301,0.061,0.469,0.107l0.432-2.285
			C345.961,282.041,345.815,281.996,345.653,281.964z"/>
		<path fill="#2E9BB6" d="M352.881,291.064l2.916-8.928h-2.537l-1.17,4.213c-0.121,0.443-0.238,0.896-0.352,1.357
			c-0.115,0.463-0.225,0.928-0.334,1.396h-0.07c-0.121-0.469-0.238-0.934-0.352-1.396c-0.115-0.461-0.232-0.914-0.352-1.357
			l-1.152-4.213h-2.664l3.006,8.928H352.881z"/>
		<path fill="#2E9BB6" d="M360.858,291.281c0.539,0,1.088-0.09,1.646-0.271c0.559-0.18,1.064-0.426,1.521-0.736l-0.883-1.604
			c-0.648,0.396-1.289,0.596-1.926,0.596c-0.6,0-1.107-0.154-1.521-0.459c-0.414-0.307-0.68-0.803-0.801-1.486h5.346
			c0.025-0.107,0.049-0.26,0.072-0.459c0.023-0.197,0.037-0.416,0.037-0.656c0-0.613-0.078-1.18-0.234-1.701
			s-0.393-0.975-0.711-1.359c-0.318-0.383-0.715-0.684-1.188-0.9c-0.475-0.215-1.029-0.324-1.666-0.324
			c-0.539,0-1.063,0.109-1.566,0.324c-0.504,0.217-0.951,0.525-1.34,0.928c-0.391,0.402-0.705,0.895-0.945,1.477
			s-0.359,1.232-0.359,1.953c0,0.744,0.113,1.402,0.342,1.979c0.227,0.576,0.545,1.066,0.953,1.467
			c0.408,0.402,0.889,0.709,1.439,0.918C359.627,291.175,360.221,291.281,360.858,291.281z M359.499,284.359
			c0.318-0.281,0.688-0.422,1.107-0.422c0.539,0,0.924,0.162,1.152,0.484c0.227,0.324,0.342,0.744,0.342,1.262h-3.223
			C358.973,285.082,359.18,284.642,359.499,284.359z"/>
		<path fill="#2E9BB6" d="M367.459,280.822c0.455,0,0.824-0.129,1.105-0.387c0.283-0.258,0.424-0.59,0.424-0.998
			s-0.141-0.738-0.424-0.99c-0.281-0.252-0.65-0.379-1.105-0.379c-0.445,0-0.811,0.127-1.1,0.379
			c-0.287,0.252-0.432,0.582-0.432,0.99s0.145,0.74,0.432,0.998C366.649,280.693,367.014,280.822,367.459,280.822z"/>
		<rect x="366.145" y="282.136" fill="#2E9BB6" width="2.646" height="8.928"/>
		<path fill="#2E9BB6" d="M371.026,278.447v9.846c0,0.455,0.043,0.867,0.127,1.232c0.084,0.367,0.219,0.678,0.404,0.936
			c0.186,0.26,0.436,0.459,0.748,0.604c0.311,0.145,0.695,0.217,1.15,0.217c0.301,0,0.563-0.021,0.783-0.064
			c0.223-0.041,0.406-0.092,0.549-0.152l-0.322-1.961c-0.072,0.023-0.131,0.035-0.172,0.035c-0.043,0-0.094,0-0.152,0
			c-0.109,0-0.213-0.055-0.316-0.162c-0.102-0.107-0.152-0.299-0.152-0.576v-9.953H371.026z"/>
		<path fill="#2E9BB6" d="M376.139,278.447v9.846c0,0.455,0.043,0.867,0.127,1.232c0.084,0.367,0.219,0.678,0.404,0.936
			c0.186,0.26,0.436,0.459,0.748,0.604c0.311,0.145,0.695,0.217,1.15,0.217c0.301,0,0.563-0.021,0.783-0.064
			c0.223-0.041,0.406-0.092,0.549-0.152l-0.322-1.961c-0.072,0.023-0.131,0.035-0.172,0.035c-0.043,0-0.094,0-0.152,0
			c-0.109,0-0.213-0.055-0.316-0.162c-0.102-0.107-0.152-0.299-0.152-0.576v-9.953H376.139z"/>
		<path fill="#2E9BB6" d="M383.01,282.244c-0.629,0.217-1.232,0.498-1.809,0.846l0.936,1.746c0.432-0.252,0.84-0.449,1.225-0.594
			c0.385-0.143,0.768-0.215,1.152-0.215c0.479,0,0.828,0.117,1.043,0.35c0.217,0.234,0.336,0.549,0.361,0.945
			c-1.766,0.18-3.043,0.535-3.834,1.063c-0.793,0.527-1.189,1.26-1.189,2.195c0,0.385,0.064,0.738,0.189,1.063
			c0.127,0.324,0.303,0.609,0.531,0.855s0.504,0.438,0.828,0.576c0.324,0.137,0.689,0.207,1.098,0.207
			c0.504,0,0.969-0.105,1.395-0.316c0.426-0.209,0.832-0.482,1.215-0.818h0.055l0.197,0.918h2.16v-5.111
			c0-1.381-0.303-2.396-0.908-3.051s-1.484-0.982-2.637-0.982C384.309,281.919,383.641,282.029,383.01,282.244z M385.918,288.472
			c-0.24,0.24-0.469,0.426-0.686,0.559c-0.215,0.131-0.479,0.197-0.791,0.197s-0.561-0.068-0.748-0.207
			c-0.186-0.137-0.277-0.352-0.277-0.639c0-0.348,0.18-0.648,0.539-0.9s1.014-0.443,1.963-0.576V288.472z"/>
		<path fill="#2E9BB6" d="M393.413,285.035c0.287-0.275,0.551-0.49,0.791-0.639c0.24-0.15,0.527-0.227,0.863-0.227
			c0.385,0,0.664,0.121,0.838,0.361s0.262,0.684,0.262,1.332v5.201h2.645v-5.543c0-1.129-0.219-2.01-0.656-2.646
			s-1.143-0.955-2.115-0.955c-0.611,0-1.146,0.137-1.602,0.406c-0.457,0.27-0.877,0.584-1.26,0.945h-0.072l-0.18-1.135h-2.16v8.928
			h2.646V285.035z"/>
		<path fill="#2E9BB6" d="M401.778,290.056c0.396,0.396,0.861,0.699,1.396,0.908c0.533,0.211,1.111,0.316,1.736,0.316
			c0.492,0,1.002-0.09,1.529-0.271c0.529-0.18,1.008-0.461,1.441-0.846l-1.063-1.674c-0.217,0.168-0.457,0.318-0.721,0.451
			c-0.264,0.131-0.557,0.197-0.881,0.197c-0.576,0-1.055-0.229-1.432-0.684c-0.379-0.457-0.566-1.074-0.566-1.854
			c0-0.781,0.186-1.398,0.557-1.855c0.373-0.455,0.883-0.684,1.531-0.684c0.406,0,0.82,0.174,1.242,0.521l1.205-1.637
			c-0.301-0.313-0.672-0.561-1.115-0.748c-0.445-0.186-0.943-0.279-1.494-0.279c-0.613,0-1.201,0.105-1.764,0.316
			c-0.564,0.209-1.061,0.512-1.486,0.908s-0.764,0.885-1.016,1.467s-0.379,1.246-0.379,1.99s0.113,1.406,0.342,1.988
			S401.383,289.66,401.778,290.056z"/>
		<path fill="#2E9BB6" d="M409.905,290.046c0.408,0.402,0.889,0.709,1.439,0.918c0.553,0.211,1.146,0.316,1.783,0.316
			c0.539,0,1.088-0.09,1.646-0.271c0.559-0.18,1.064-0.426,1.521-0.736l-0.883-1.604c-0.648,0.396-1.289,0.596-1.926,0.596
			c-0.6,0-1.107-0.154-1.521-0.459c-0.414-0.307-0.68-0.803-0.801-1.486h5.346c0.025-0.107,0.049-0.26,0.072-0.459
			c0.023-0.197,0.037-0.416,0.037-0.656c0-0.613-0.078-1.18-0.234-1.701s-0.393-0.975-0.711-1.359
			c-0.318-0.383-0.715-0.684-1.188-0.9c-0.475-0.215-1.029-0.324-1.666-0.324c-0.539,0-1.063,0.109-1.566,0.324
			c-0.504,0.217-0.951,0.525-1.34,0.928c-0.391,0.402-0.705,0.895-0.945,1.477s-0.359,1.232-0.359,1.953
			c0,0.744,0.113,1.402,0.342,1.979C409.178,289.156,409.497,289.646,409.905,290.046z M411.768,284.359
			c0.318-0.281,0.688-0.422,1.107-0.422c0.539,0,0.924,0.162,1.152,0.484c0.227,0.324,0.342,0.744,0.342,1.262h-3.223
			C411.243,285.082,411.45,284.642,411.768,284.359z"/>
		<path fill="#2E9BB6" d="M282.297,309.115c0.744-0.57,1.117-1.436,1.117-2.6c0-0.613-0.096-1.129-0.289-1.549
			c-0.191-0.42-0.471-0.762-0.836-1.025c-0.367-0.264-0.811-0.453-1.332-0.568c-0.521-0.113-1.113-0.17-1.773-0.17h-3.24v11.861
			h0.828v-5.094h2.412C280.516,309.97,281.553,309.685,282.297,309.115z M276.772,309.269v-5.365h2.215
			c0.6,0,1.125,0.043,1.574,0.127c0.451,0.084,0.822,0.229,1.115,0.432c0.295,0.203,0.518,0.471,0.666,0.801
			c0.15,0.33,0.227,0.746,0.227,1.252c0,0.971-0.295,1.674-0.883,2.105s-1.488,0.648-2.699,0.648H276.772z"/>
		<path fill="#2E9BB6" d="M287.629,315.281c0.576,0,1.119-0.135,1.629-0.406c0.51-0.27,0.986-0.578,1.432-0.926h0.035l0.09,1.115
			h0.666v-5.525c0-0.469-0.045-0.902-0.135-1.305s-0.242-0.754-0.459-1.053c-0.215-0.301-0.498-0.537-0.846-0.713
			c-0.348-0.174-0.779-0.26-1.297-0.26c-0.348,0-0.684,0.039-1.008,0.117s-0.621,0.17-0.891,0.279
			c-0.27,0.107-0.516,0.227-0.738,0.359c-0.221,0.133-0.41,0.252-0.566,0.359l0.359,0.594c0.289-0.215,0.672-0.438,1.152-0.666
			c0.48-0.227,1.014-0.342,1.602-0.342c0.42,0,0.766,0.082,1.035,0.244c0.271,0.162,0.48,0.371,0.631,0.629s0.252,0.553,0.305,0.883
			c0.055,0.33,0.076,0.656,0.064,0.98c-1.92,0.217-3.33,0.576-4.23,1.08s-1.35,1.23-1.35,2.178c0,0.408,0.064,0.762,0.197,1.063
			s0.314,0.547,0.549,0.738s0.502,0.336,0.801,0.432C286.958,315.232,287.282,315.281,287.629,315.281z M285.938,312.869
			c0-0.336,0.08-0.643,0.242-0.918c0.162-0.277,0.43-0.523,0.801-0.738c0.373-0.217,0.861-0.402,1.467-0.559
			c0.607-0.156,1.354-0.287,2.242-0.396v2.936c-0.541,0.455-1.039,0.803-1.494,1.043c-0.457,0.24-0.936,0.361-1.439,0.361
			c-0.492,0-0.918-0.133-1.279-0.396C286.118,313.937,285.938,313.492,285.938,312.869z"/>
		<path fill="#2E9BB6" d="M297.262,315.191c0.252-0.061,0.504-0.139,0.756-0.234l-0.215-0.648c-0.156,0.072-0.334,0.135-0.531,0.189
			c-0.199,0.053-0.381,0.08-0.549,0.08c-0.301,0-0.543-0.045-0.73-0.135c-0.186-0.09-0.332-0.215-0.439-0.377
			c-0.109-0.162-0.184-0.355-0.227-0.576c-0.041-0.223-0.063-0.471-0.063-0.748v-5.633h2.502v-0.686h-2.502v-2.502h-0.684
			l-0.107,2.502l-1.369,0.072v0.613h1.35v5.561c0,0.385,0.033,0.738,0.1,1.063s0.184,0.6,0.352,0.828s0.389,0.404,0.666,0.531
			c0.275,0.125,0.623,0.189,1.043,0.189C296.795,315.281,297.01,315.25,297.262,315.191z"/>
		<path fill="#2E9BB6" d="M300.985,303.634c0-0.229-0.068-0.404-0.207-0.531c-0.137-0.125-0.309-0.189-0.512-0.189
			c-0.205,0-0.377,0.064-0.514,0.189c-0.139,0.127-0.207,0.303-0.207,0.531c0,0.205,0.068,0.371,0.207,0.504
			c0.137,0.133,0.309,0.197,0.514,0.197c0.203,0,0.375-0.064,0.512-0.197C300.917,304.005,300.985,303.839,300.985,303.634z"/>
		<rect x="299.852" y="306.423" fill="#2E9BB6" width="0.791" height="8.641"/>
		<path fill="#2E9BB6" d="M305.381,306.523c-0.451,0.211-0.852,0.51-1.207,0.9c-0.354,0.391-0.635,0.867-0.846,1.432
			c-0.209,0.563-0.314,1.199-0.314,1.908c0,0.707,0.105,1.34,0.314,1.898c0.211,0.557,0.496,1.031,0.855,1.422
			s0.783,0.688,1.27,0.891s1.004,0.307,1.557,0.307c0.637,0,1.16-0.09,1.574-0.271c0.414-0.18,0.795-0.371,1.145-0.574l-0.324-0.613
			c-0.324,0.24-0.676,0.43-1.053,0.568c-0.379,0.137-0.803,0.207-1.27,0.207c-0.492,0-0.936-0.094-1.332-0.279
			c-0.396-0.188-0.736-0.445-1.018-0.775s-0.5-0.725-0.656-1.188c-0.156-0.461-0.24-0.963-0.252-1.502h6.227
			c0.025-0.109,0.037-0.217,0.037-0.324c0-0.109,0-0.217,0-0.324c0-1.271-0.295-2.256-0.883-2.953
			c-0.588-0.695-1.398-1.043-2.43-1.043C306.295,306.208,305.831,306.314,305.381,306.523z M308.649,307.73
			c0.455,0.557,0.684,1.395,0.684,2.51h-5.508c0.047-0.516,0.158-0.98,0.332-1.395s0.396-0.766,0.666-1.053
			c0.27-0.289,0.574-0.51,0.91-0.666s0.689-0.234,1.061-0.234C307.575,306.892,308.192,307.171,308.649,307.73z"/>
		<path fill="#2E9BB6" d="M315.918,306.927c0.707,0,1.215,0.221,1.52,0.658c0.307,0.438,0.459,1.119,0.459,2.043v5.436h0.793v-5.543
			c0-1.129-0.211-1.963-0.631-2.502c-0.42-0.541-1.08-0.811-1.98-0.811c-0.6,0-1.133,0.146-1.602,0.441
			c-0.467,0.293-0.924,0.662-1.367,1.105h-0.055l-0.072-1.332h-0.684v8.641h0.793v-6.516c0.527-0.541,1.002-0.945,1.422-1.215
			S315.401,306.927,315.918,306.927z"/>
		<path fill="#2E9BB6" d="M323.903,315.281c0.182,0,0.396-0.031,0.648-0.09c0.252-0.061,0.504-0.139,0.756-0.234l-0.215-0.648
			c-0.156,0.072-0.334,0.135-0.531,0.189c-0.199,0.053-0.381,0.08-0.549,0.08c-0.301,0-0.543-0.045-0.73-0.135
			c-0.186-0.09-0.332-0.215-0.439-0.377c-0.109-0.162-0.184-0.355-0.227-0.576c-0.041-0.223-0.063-0.471-0.063-0.748v-5.633h2.502
			v-0.686h-2.502v-2.502h-0.684l-0.107,2.502l-1.369,0.072v0.613h1.35v5.561c0,0.385,0.033,0.738,0.1,1.063s0.184,0.6,0.352,0.828
			s0.389,0.404,0.666,0.531C323.135,315.216,323.483,315.281,323.903,315.281z"/>
		<path fill="#2E9BB6" d="M331.536,309.177c0.336-0.814,0.717-1.389,1.143-1.719s0.832-0.494,1.215-0.494
			c0.168,0,0.307,0.01,0.414,0.027c0.109,0.018,0.234,0.057,0.379,0.117l0.18-0.721c-0.145-0.072-0.281-0.119-0.414-0.145
			c-0.133-0.023-0.281-0.035-0.449-0.035c-0.518,0-0.982,0.168-1.396,0.504c-0.412,0.336-0.764,0.773-1.053,1.314H331.5
			l-0.072-1.604h-0.684v8.641h0.791V309.177z"/>
		<rect x="336.557" y="306.423" fill="#2E9BB6" width="0.791" height="8.641"/>
		<path fill="#2E9BB6" d="M337.69,303.634c0-0.229-0.068-0.404-0.207-0.531c-0.137-0.125-0.309-0.189-0.512-0.189
			c-0.205,0-0.377,0.064-0.514,0.189c-0.139,0.127-0.207,0.303-0.207,0.531c0,0.205,0.068,0.371,0.207,0.504
			c0.137,0.133,0.309,0.197,0.514,0.197c0.203,0,0.375-0.064,0.512-0.197C337.622,304.005,337.69,303.839,337.69,303.634z"/>
		<path fill="#2E9BB6" d="M342.536,315.281c0.469,0,0.883-0.066,1.242-0.199c0.359-0.131,0.666-0.309,0.918-0.531
			c0.252-0.221,0.441-0.479,0.566-0.773c0.127-0.293,0.189-0.604,0.189-0.926c0-0.42-0.084-0.771-0.252-1.055
			c-0.168-0.281-0.387-0.518-0.656-0.711c-0.27-0.191-0.574-0.354-0.91-0.484c-0.336-0.133-0.672-0.266-1.008-0.396
			c-0.252-0.096-0.5-0.195-0.746-0.297s-0.465-0.219-0.658-0.352c-0.191-0.133-0.344-0.285-0.459-0.459
			c-0.113-0.174-0.17-0.387-0.17-0.639c0-0.191,0.039-0.385,0.117-0.576s0.197-0.359,0.359-0.504s0.363-0.262,0.604-0.352
			s0.527-0.135,0.863-0.135c0.443,0,0.828,0.076,1.152,0.225c0.324,0.15,0.631,0.334,0.918,0.549l0.432-0.557
			c-0.313-0.264-0.688-0.48-1.125-0.648s-0.885-0.252-1.34-0.252c-0.457,0-0.855,0.061-1.197,0.18
			c-0.342,0.121-0.633,0.285-0.873,0.494c-0.24,0.211-0.42,0.457-0.541,0.738c-0.119,0.283-0.18,0.58-0.18,0.893
			c0,0.371,0.082,0.686,0.244,0.943c0.16,0.26,0.373,0.48,0.639,0.666c0.264,0.188,0.561,0.346,0.891,0.479
			c0.33,0.131,0.656,0.258,0.98,0.377c0.252,0.096,0.502,0.197,0.748,0.307c0.244,0.107,0.471,0.234,0.674,0.377
			c0.205,0.145,0.369,0.318,0.496,0.523c0.125,0.203,0.188,0.438,0.188,0.701c0,0.457-0.17,0.855-0.512,1.197
			s-0.855,0.514-1.539,0.514c-0.625,0-1.146-0.105-1.566-0.316c-0.42-0.209-0.816-0.471-1.188-0.783l-0.469,0.594
			c0.385,0.324,0.846,0.604,1.387,0.838C341.293,315.164,341.887,315.281,342.536,315.281z"/>
		<polygon fill="#2E9BB6" points="353.125,315.064 354.008,315.064 350.733,309.843 353.54,306.423 352.622,306.423 
			348.356,311.662 348.321,311.662 348.321,302.123 347.528,302.123 347.528,315.064 348.321,315.064 348.321,312.707 
			350.264,310.439 		"/>
		<path fill="#2E9BB6" d="M276.989,327.634c0-0.229-0.07-0.404-0.207-0.531c-0.139-0.125-0.311-0.189-0.514-0.189
			s-0.375,0.064-0.514,0.189c-0.137,0.127-0.207,0.303-0.207,0.531c0,0.205,0.07,0.371,0.207,0.504
			c0.139,0.133,0.311,0.197,0.514,0.197s0.375-0.064,0.514-0.197C276.918,328.005,276.989,327.839,276.989,327.634z"/>
		<rect x="275.854" y="330.423" fill="#2E9BB6" width="0.793" height="8.641"/>
		<path fill="#2E9BB6" d="M282.598,339.281c0.576,0,1.102-0.135,1.576-0.406c0.475-0.27,0.885-0.578,1.232-0.926h0.055l0.072,1.115
			h0.684v-12.941h-0.793v3.564l0.037,1.584c-0.432-0.336-0.844-0.598-1.232-0.783c-0.391-0.186-0.85-0.279-1.379-0.279
			c-0.516,0-1.004,0.105-1.467,0.314c-0.461,0.211-0.869,0.514-1.223,0.91c-0.355,0.395-0.633,0.875-0.838,1.439
			c-0.203,0.564-0.307,1.193-0.307,1.891c0,1.463,0.324,2.582,0.973,3.355C280.637,338.894,281.506,339.281,282.598,339.281z
			 M280.096,333.242c0.156-0.475,0.369-0.883,0.641-1.225c0.27-0.342,0.59-0.611,0.963-0.811c0.371-0.197,0.773-0.297,1.205-0.297
			c0.42,0,0.832,0.084,1.232,0.252c0.402,0.168,0.832,0.457,1.287,0.865v5.129c-0.455,0.457-0.902,0.809-1.34,1.053
			c-0.439,0.246-0.898,0.369-1.377,0.369c-0.457,0-0.861-0.092-1.215-0.279c-0.355-0.186-0.652-0.443-0.893-0.773
			c-0.238-0.33-0.422-0.729-0.549-1.197c-0.125-0.467-0.188-0.99-0.188-1.564C279.864,334.222,279.942,333.716,280.096,333.242z"/>
		<path fill="#2E9BB6" d="M295.684,334.529c0-0.109,0-0.217,0-0.324c0-1.271-0.293-2.256-0.881-2.953
			c-0.588-0.695-1.398-1.043-2.43-1.043c-0.48,0-0.945,0.105-1.396,0.314c-0.449,0.211-0.852,0.51-1.205,0.9
			s-0.637,0.867-0.846,1.432c-0.211,0.563-0.316,1.199-0.316,1.908c0,0.707,0.105,1.34,0.316,1.898
			c0.209,0.557,0.494,1.031,0.855,1.422c0.359,0.391,0.781,0.688,1.268,0.891s1.006,0.307,1.557,0.307
			c0.637,0,1.162-0.09,1.576-0.271c0.414-0.18,0.795-0.371,1.143-0.574L295,337.822c-0.324,0.24-0.674,0.43-1.053,0.568
			c-0.379,0.137-0.801,0.207-1.27,0.207c-0.492,0-0.936-0.094-1.332-0.279c-0.395-0.188-0.734-0.445-1.016-0.775
			c-0.283-0.33-0.502-0.725-0.658-1.188c-0.156-0.461-0.24-0.963-0.252-1.502h6.229
			C295.672,334.744,295.684,334.636,295.684,334.529z M289.42,334.24c0.049-0.516,0.16-0.98,0.334-1.395s0.395-0.766,0.666-1.053
			c0.27-0.289,0.572-0.51,0.908-0.666s0.689-0.234,1.063-0.234c0.779,0,1.398,0.279,1.854,0.838c0.457,0.557,0.684,1.395,0.684,2.51
			H289.42z"/>
		<path fill="#2E9BB6" d="M304.286,339.064v-5.543c0-1.129-0.209-1.963-0.629-2.502c-0.42-0.541-1.08-0.811-1.98-0.811
			c-0.6,0-1.135,0.146-1.602,0.441c-0.469,0.293-0.924,0.662-1.369,1.105h-0.053l-0.072-1.332h-0.684v8.641h0.791v-6.516
			c0.527-0.541,1.002-0.945,1.422-1.215s0.889-0.406,1.404-0.406c0.707,0,1.215,0.221,1.521,0.658
			c0.305,0.438,0.459,1.119,0.459,2.043v5.436H304.286z"/>
		<path fill="#2E9BB6" d="M307.44,337.732c0.066,0.324,0.184,0.6,0.352,0.828s0.389,0.404,0.666,0.531
			c0.275,0.125,0.623,0.189,1.043,0.189c0.182,0,0.396-0.031,0.648-0.09c0.252-0.061,0.504-0.139,0.756-0.234l-0.215-0.648
			c-0.156,0.072-0.334,0.135-0.531,0.189c-0.199,0.053-0.381,0.08-0.549,0.08c-0.301,0-0.543-0.045-0.73-0.135
			c-0.186-0.09-0.332-0.215-0.439-0.377c-0.109-0.162-0.184-0.355-0.227-0.576c-0.041-0.223-0.063-0.471-0.063-0.748v-5.633h2.502
			v-0.686h-2.502v-2.502h-0.684l-0.107,2.502l-1.369,0.072v0.613h1.35v5.561C307.34,337.054,307.374,337.408,307.44,337.732z"/>
		<path fill="#2E9BB6" d="M313.872,327.634c0-0.229-0.068-0.404-0.207-0.531c-0.137-0.125-0.309-0.189-0.512-0.189
			c-0.205,0-0.377,0.064-0.514,0.189c-0.139,0.127-0.207,0.303-0.207,0.531c0,0.205,0.068,0.371,0.207,0.504
			c0.137,0.133,0.309,0.197,0.514,0.197c0.203,0,0.375-0.064,0.512-0.197C313.803,328.005,313.872,327.839,313.872,327.634z"/>
		<rect x="312.739" y="330.423" fill="#2E9BB6" width="0.791" height="8.641"/>
		<path fill="#2E9BB6" d="M317.872,327.103c0.223-0.342,0.561-0.514,1.018-0.514c0.168,0,0.338,0.02,0.512,0.055
			c0.174,0.037,0.352,0.102,0.531,0.197l0.217-0.646c-0.42-0.193-0.84-0.289-1.26-0.289c-0.684,0-1.213,0.217-1.584,0.648
			c-0.373,0.432-0.559,1.08-0.559,1.943v1.926l-1.188,0.072v0.613h1.188v7.955h0.793v-7.955h1.998v-0.686h-1.998v-1.871
			C317.54,327.929,317.649,327.445,317.872,327.103z"/>
		<path fill="#2E9BB6" d="M322.776,327.634c0-0.229-0.068-0.404-0.207-0.531c-0.137-0.125-0.309-0.189-0.512-0.189
			c-0.205,0-0.377,0.064-0.514,0.189c-0.139,0.127-0.207,0.303-0.207,0.531c0,0.205,0.068,0.371,0.207,0.504
			c0.137,0.133,0.309,0.197,0.514,0.197c0.203,0,0.375-0.064,0.512-0.197C322.708,328.005,322.776,327.839,322.776,327.634z"/>
		<rect x="321.643" y="330.423" fill="#2E9BB6" width="0.791" height="8.641"/>
		<path fill="#2E9BB6" d="M325.928,338.091c0.355,0.385,0.77,0.68,1.242,0.883c0.475,0.203,0.994,0.307,1.559,0.307
			c0.551,0,1.055-0.109,1.512-0.324c0.455-0.217,0.869-0.492,1.242-0.828l-0.414-0.541c-0.301,0.277-0.646,0.512-1.035,0.703
			c-0.391,0.191-0.814,0.287-1.27,0.287c-0.469,0-0.896-0.092-1.287-0.279c-0.391-0.186-0.721-0.445-0.99-0.781
			s-0.48-0.738-0.629-1.207c-0.15-0.469-0.227-0.984-0.227-1.547c0-0.576,0.082-1.1,0.244-1.566
			c0.162-0.469,0.383-0.873,0.666-1.215c0.281-0.342,0.611-0.607,0.99-0.793c0.377-0.186,0.789-0.279,1.232-0.279
			c0.42,0,0.799,0.088,1.135,0.262s0.641,0.393,0.918,0.656l0.467-0.557c-0.287-0.277-0.633-0.523-1.035-0.738
			c-0.402-0.217-0.902-0.324-1.502-0.324c-0.529,0-1.029,0.102-1.504,0.307c-0.475,0.203-0.891,0.498-1.25,0.881
			c-0.361,0.385-0.648,0.861-0.865,1.432c-0.215,0.57-0.324,1.215-0.324,1.936c0,0.719,0.1,1.357,0.299,1.916
			C325.299,337.238,325.575,337.708,325.928,338.091z"/>
		<path fill="#2E9BB6" d="M333.137,336.904c0,0.408,0.064,0.762,0.197,1.063s0.314,0.547,0.549,0.738s0.502,0.336,0.801,0.432
			c0.301,0.096,0.625,0.145,0.973,0.145c0.576,0,1.119-0.135,1.629-0.406c0.51-0.27,0.986-0.578,1.432-0.926h0.035l0.09,1.115h0.666
			v-5.525c0-0.469-0.045-0.902-0.135-1.305s-0.242-0.754-0.459-1.053c-0.215-0.301-0.498-0.537-0.846-0.713
			c-0.348-0.174-0.779-0.26-1.297-0.26c-0.348,0-0.684,0.039-1.008,0.117s-0.621,0.17-0.891,0.279
			c-0.27,0.107-0.516,0.227-0.738,0.359c-0.221,0.133-0.41,0.252-0.566,0.359l0.359,0.594c0.289-0.215,0.672-0.438,1.152-0.666
			c0.48-0.227,1.014-0.342,1.602-0.342c0.42,0,0.766,0.082,1.035,0.244c0.271,0.162,0.48,0.371,0.631,0.629s0.252,0.553,0.305,0.883
			c0.055,0.33,0.076,0.656,0.064,0.98c-1.92,0.217-3.33,0.576-4.23,1.08S333.137,335.957,333.137,336.904z M335.008,335.212
			c0.373-0.217,0.861-0.402,1.467-0.559c0.607-0.156,1.354-0.287,2.242-0.396v2.936c-0.541,0.455-1.039,0.803-1.494,1.043
			c-0.457,0.24-0.936,0.361-1.439,0.361c-0.492,0-0.918-0.133-1.279-0.396c-0.359-0.264-0.539-0.709-0.539-1.332
			c0-0.336,0.08-0.643,0.242-0.918C334.37,335.673,334.637,335.427,335.008,335.212z"/>
		<path fill="#2E9BB6" d="M342.581,337.732c0.066,0.324,0.184,0.6,0.352,0.828s0.389,0.404,0.666,0.531
			c0.275,0.125,0.623,0.189,1.043,0.189c0.182,0,0.396-0.031,0.648-0.09c0.252-0.061,0.504-0.139,0.756-0.234l-0.215-0.648
			c-0.156,0.072-0.334,0.135-0.531,0.189c-0.199,0.053-0.381,0.08-0.549,0.08c-0.301,0-0.543-0.045-0.73-0.135
			c-0.186-0.09-0.332-0.215-0.439-0.377c-0.109-0.162-0.184-0.355-0.227-0.576c-0.041-0.223-0.063-0.471-0.063-0.748v-5.633h2.502
			v-0.686h-2.502v-2.502h-0.684l-0.107,2.502l-1.369,0.072v0.613h1.35v5.561C342.481,337.054,342.514,337.408,342.581,337.732z"/>
		<rect x="347.879" y="330.423" fill="#2E9BB6" width="0.791" height="8.641"/>
		<path fill="#2E9BB6" d="M349.012,327.634c0-0.229-0.068-0.404-0.207-0.531c-0.137-0.125-0.309-0.189-0.512-0.189
			c-0.205,0-0.377,0.064-0.514,0.189c-0.139,0.127-0.207,0.303-0.207,0.531c0,0.205,0.068,0.371,0.207,0.504
			c0.137,0.133,0.309,0.197,0.514,0.197c0.203,0,0.375-0.064,0.512-0.197C348.944,328.005,349.012,327.839,349.012,327.634z"/>
		<path fill="#2E9BB6" d="M352.202,338.091c0.355,0.385,0.766,0.68,1.234,0.883c0.467,0.203,0.959,0.307,1.475,0.307
			c0.518,0,1.012-0.104,1.486-0.307c0.473-0.203,0.887-0.498,1.242-0.883c0.354-0.383,0.635-0.854,0.846-1.412
			c0.209-0.559,0.314-1.197,0.314-1.916c0-0.721-0.105-1.365-0.314-1.936c-0.211-0.57-0.492-1.047-0.846-1.432
			c-0.355-0.383-0.77-0.678-1.242-0.881c-0.475-0.205-0.969-0.307-1.486-0.307c-0.516,0-1.008,0.102-1.475,0.307
			c-0.469,0.203-0.879,0.498-1.234,0.881c-0.354,0.385-0.635,0.861-0.846,1.432c-0.209,0.57-0.314,1.215-0.314,1.936
			c0,0.719,0.105,1.357,0.314,1.916C351.567,337.238,351.848,337.708,352.202,338.091z M352.104,333.197
			c0.156-0.469,0.369-0.873,0.639-1.215s0.59-0.607,0.963-0.793c0.371-0.186,0.773-0.279,1.205-0.279
			c0.434,0,0.838,0.094,1.217,0.279c0.377,0.186,0.701,0.451,0.971,0.793s0.482,0.746,0.639,1.215
			c0.156,0.467,0.234,0.99,0.234,1.566c0,0.563-0.078,1.078-0.234,1.547s-0.369,0.871-0.639,1.207s-0.594,0.596-0.971,0.781
			c-0.379,0.188-0.783,0.279-1.217,0.279c-0.432,0-0.834-0.092-1.205-0.279c-0.373-0.186-0.693-0.445-0.963-0.781
			s-0.482-0.738-0.639-1.207s-0.234-0.984-0.234-1.547C351.87,334.187,351.948,333.664,352.104,333.197z"/>
		<path fill="#2E9BB6" d="M361.995,331.755h-0.055l-0.072-1.332h-0.684v8.641h0.793v-6.516c0.527-0.541,1.002-0.945,1.422-1.215
			s0.887-0.406,1.404-0.406c0.707,0,1.215,0.221,1.52,0.658c0.307,0.438,0.459,1.119,0.459,2.043v5.436h0.793v-5.543
			c0-1.129-0.211-1.963-0.631-2.502c-0.42-0.541-1.08-0.811-1.98-0.811c-0.6,0-1.133,0.146-1.602,0.441
			C362.895,330.943,362.438,331.312,361.995,331.755z"/>
		<path fill="#2E9BB6" d="M33.431,127.625c0.516,0.504,1.118,0.885,1.809,1.143c0.689,0.258,1.431,0.387,2.223,0.387
			c0.828,0,1.584-0.138,2.269-0.414c0.684-0.276,1.235-0.612,1.656-1.008v-5.4h-4.284v2.16h1.943v2.016
			c-0.144,0.12-0.33,0.21-0.558,0.27c-0.229,0.061-0.462,0.09-0.702,0.09c-1.104,0-1.929-0.333-2.475-0.999
			c-0.547-0.666-0.819-1.605-0.819-2.817c0-0.587,0.075-1.116,0.226-1.584c0.149-0.468,0.362-0.864,0.639-1.188
			c0.275-0.324,0.603-0.573,0.98-0.747s0.795-0.261,1.251-0.261c0.505,0,0.915,0.078,1.233,0.234
			c0.317,0.156,0.621,0.372,0.909,0.648l1.458-1.638c-0.385-0.396-0.879-0.75-1.485-1.062c-0.605-0.312-1.323-0.468-2.15-0.468
			c-0.792,0-1.539,0.138-2.241,0.414c-0.702,0.276-1.314,0.678-1.836,1.206c-0.522,0.528-0.937,1.173-1.242,1.935
			c-0.306,0.762-0.459,1.629-0.459,2.601c0,0.984,0.146,1.851,0.44,2.601S32.914,127.121,33.431,127.625z"/>
		<path fill="#2E9BB6" d="M44.14,128.336c0.186,0.258,0.435,0.459,0.747,0.603c0.312,0.144,0.695,0.216,1.151,0.216
			c0.3,0,0.562-0.021,0.783-0.063s0.405-0.093,0.549-0.153l-0.323-1.962c-0.072,0.024-0.13,0.036-0.172,0.036s-0.093,0-0.152,0
			c-0.108,0-0.213-0.054-0.315-0.162c-0.102-0.108-0.152-0.3-0.152-0.576v-9.954h-2.646v9.846c0,0.456,0.042,0.867,0.126,1.233
			C43.818,127.766,43.953,128.078,44.14,128.336z"/>
		<path fill="#2E9BB6" d="M52.972,123.845c-0.108,0.42-0.213,0.843-0.315,1.269c-0.102,0.426-0.2,0.849-0.297,1.269h-0.071
			c-0.12-0.444-0.234-0.875-0.343-1.296c-0.107-0.42-0.228-0.834-0.359-1.242l-1.278-3.834h-2.664l3.438,8.694l-0.126,0.468
			c-0.12,0.348-0.301,0.63-0.54,0.846c-0.24,0.216-0.582,0.324-1.026,0.324c-0.096,0-0.198-0.012-0.306-0.036
			c-0.108-0.024-0.204-0.048-0.288-0.072l-0.468,2.016c0.18,0.06,0.365,0.105,0.558,0.135c0.191,0.03,0.426,0.045,0.702,0.045
			c0.527,0,0.986-0.072,1.377-0.216c0.39-0.144,0.738-0.357,1.044-0.639c0.306-0.282,0.576-0.636,0.81-1.062
			c0.234-0.426,0.459-0.921,0.676-1.485l3.096-9.018h-2.538L52.972,123.845z"/>
		<path fill="#2E9BB6" d="M59.191,127.625c0.504,0.504,1.092,0.885,1.764,1.143s1.386,0.387,2.142,0.387
			c0.732,0,1.413-0.144,2.044-0.432c0.63-0.288,1.19-0.72,1.683-1.296l-1.458-1.602c-0.288,0.312-0.612,0.564-0.972,0.756
			c-0.36,0.192-0.78,0.288-1.261,0.288c-0.863,0-1.554-0.333-2.069-0.999c-0.517-0.666-0.774-1.605-0.774-2.817
			c0-0.587,0.075-1.116,0.226-1.584c0.149-0.468,0.356-0.864,0.62-1.188c0.265-0.324,0.573-0.573,0.928-0.747
			c0.354-0.174,0.734-0.261,1.143-0.261s0.765,0.078,1.071,0.234c0.306,0.156,0.608,0.372,0.909,0.648l1.458-1.638
			c-0.396-0.408-0.892-0.765-1.485-1.071c-0.594-0.306-1.257-0.459-1.989-0.459c-0.756,0-1.473,0.138-2.15,0.414
			c-0.679,0.276-1.272,0.678-1.782,1.206c-0.511,0.528-0.915,1.173-1.215,1.935c-0.301,0.762-0.45,1.629-0.45,2.601
			c0,0.984,0.144,1.851,0.432,2.601S58.688,127.121,59.191,127.625z"/>
		<path fill="#2E9BB6" d="M68.801,128.336c0.186,0.258,0.435,0.459,0.747,0.603c0.312,0.144,0.695,0.216,1.151,0.216
			c0.3,0,0.562-0.021,0.783-0.063s0.405-0.093,0.549-0.153l-0.323-1.962c-0.072,0.024-0.13,0.036-0.172,0.036s-0.093,0-0.152,0
			c-0.108,0-0.213-0.054-0.315-0.162c-0.102-0.108-0.152-0.3-0.152-0.576v-9.954H68.27v9.846c0,0.456,0.042,0.867,0.126,1.233
			C68.479,127.766,68.614,128.078,68.801,128.336z"/>
		<path fill="#2E9BB6" d="M74.173,127.931c0.402,0.396,0.867,0.699,1.396,0.909c0.527,0.21,1.073,0.315,1.638,0.315
			s1.107-0.105,1.629-0.315c0.522-0.209,0.984-0.513,1.386-0.909c0.402-0.396,0.724-0.885,0.964-1.467
			c0.239-0.582,0.359-1.245,0.359-1.989s-0.12-1.407-0.359-1.989c-0.24-0.582-0.562-1.071-0.964-1.467
			c-0.401-0.396-0.863-0.699-1.386-0.909c-0.521-0.209-1.064-0.315-1.629-0.315s-1.11,0.105-1.638,0.315
			c-0.528,0.21-0.993,0.513-1.396,0.909s-0.723,0.885-0.963,1.467c-0.24,0.583-0.359,1.245-0.359,1.989s0.119,1.407,0.359,1.989
			C73.45,127.046,73.771,127.535,74.173,127.931z M75.974,122.621c0.27-0.456,0.681-0.684,1.232-0.684
			c0.54,0,0.948,0.228,1.224,0.684c0.276,0.456,0.414,1.074,0.414,1.854s-0.138,1.398-0.414,1.854
			c-0.275,0.456-0.684,0.684-1.224,0.684c-0.552,0-0.963-0.228-1.232-0.684c-0.271-0.456-0.405-1.074-0.405-1.854
			S75.703,123.077,75.974,122.621z"/>
		<path fill="#2E9BB6" d="M85.982,129.155c0.612,0,1.138-0.129,1.575-0.387c0.438-0.258,0.849-0.615,1.233-1.071h0.054l0.198,1.242
			h2.16v-8.928h-2.646v5.904c-0.264,0.348-0.51,0.6-0.737,0.756c-0.229,0.156-0.511,0.234-0.847,0.234
			c-0.384,0-0.666-0.12-0.846-0.36c-0.18-0.24-0.271-0.684-0.271-1.332v-5.202h-2.646v5.544c0,1.128,0.219,2.01,0.657,2.646
			C84.306,128.837,85.011,129.155,85.982,129.155z"/>
		<path fill="#2E9BB6" d="M94.036,127.904c0.317,0.402,0.702,0.711,1.151,0.927c0.45,0.216,0.951,0.324,1.504,0.324
			c0.432,0,0.857-0.105,1.277-0.315c0.42-0.209,0.786-0.471,1.099-0.783h0.071l0.181,0.882h2.159v-12.618h-2.646v3.042l0.108,1.368
			c-0.313-0.288-0.631-0.516-0.954-0.684c-0.324-0.168-0.738-0.252-1.242-0.252c-0.468,0-0.927,0.108-1.377,0.324
			c-0.45,0.216-0.847,0.525-1.188,0.927c-0.342,0.402-0.618,0.891-0.828,1.467c-0.21,0.576-0.314,1.23-0.314,1.962
			s0.087,1.386,0.261,1.962S93.718,127.502,94.036,127.904z M96.241,122.558c0.324-0.402,0.695-0.603,1.116-0.603
			c0.239,0,0.485,0.042,0.737,0.126s0.498,0.234,0.738,0.45v3.654c-0.216,0.3-0.441,0.51-0.675,0.63
			c-0.234,0.12-0.495,0.18-0.783,0.18c-0.517,0-0.915-0.204-1.197-0.612c-0.282-0.408-0.423-1.056-0.423-1.944
			C95.755,123.587,95.917,122.96,96.241,122.558z"/>
		<path fill="#2E9BB6" d="M120.522,205.107h3.792v4.92c-0.385,0.385-0.893,0.68-1.524,0.889c-0.632,0.207-1.308,0.311-2.028,0.311
			c-0.896,0-1.7-0.17-2.411-0.516c-0.713-0.344-1.313-0.828-1.801-1.451c-0.488-0.625-0.86-1.381-1.115-2.268
			c-0.257-0.889-0.385-1.885-0.385-2.988s0.136-2.096,0.408-2.977c0.272-0.879,0.66-1.627,1.164-2.244
			c0.504-0.615,1.116-1.092,1.836-1.428s1.536-0.504,2.448-0.504c0.864,0,1.584,0.156,2.16,0.469
			c0.576,0.311,1.071,0.691,1.487,1.139l0.648-0.719c-0.208-0.225-0.452-0.449-0.732-0.672c-0.279-0.225-0.596-0.43-0.947-0.613
			c-0.353-0.184-0.744-0.332-1.177-0.443c-0.432-0.111-0.911-0.168-1.439-0.168c-1.056,0-2.013,0.188-2.868,0.564
			c-0.856,0.375-1.592,0.92-2.208,1.631c-0.616,0.713-1.092,1.572-1.428,2.58s-0.504,2.137-0.504,3.385
			c0,1.264,0.163,2.404,0.491,3.42s0.788,1.881,1.381,2.592c0.592,0.713,1.304,1.26,2.136,1.645c0.832,0.383,1.752,0.576,2.76,0.576
			c1.056,0,1.98-0.168,2.772-0.504s1.436-0.77,1.932-1.297v-6.264h-4.848V205.107z"/>
		<path fill="#2E9BB6" d="M130.721,211.298c-0.056,0-0.107,0-0.156,0c-0.144,0-0.264-0.059-0.359-0.18
			c-0.097-0.119-0.145-0.307-0.145-0.564v-15.863h-1.056v15.721c0,1.215,0.472,1.824,1.416,1.824c0.176,0,0.32-0.014,0.432-0.037
			c0.112-0.023,0.225-0.053,0.336-0.084l-0.191-0.863C130.869,211.283,130.777,211.298,130.721,211.298z"/>
		<path fill="#2E9BB6" d="M141.351,208.923c-0.672,0.816-1.288,1.412-1.848,1.787c-0.561,0.377-1.185,0.564-1.872,0.564
			c-0.928,0-1.596-0.291-2.004-0.875s-0.612-1.492-0.612-2.725v-7.248h-1.056v7.393c0,1.504,0.279,2.615,0.84,3.336
			c0.56,0.719,1.44,1.08,2.64,1.08c0.801,0,1.513-0.201,2.137-0.602c0.624-0.398,1.216-0.936,1.775-1.607h0.049l0.119,1.92h0.889
			v-11.52h-1.057V208.923z"/>
		<path fill="#2E9BB6" d="M154.558,210.748c-0.632,0.32-1.356,0.479-2.172,0.479c-0.849,0-1.612-0.17-2.292-0.516
			c-0.681-0.344-1.26-0.828-1.74-1.451c-0.479-0.625-0.849-1.381-1.104-2.268c-0.257-0.889-0.385-1.885-0.385-2.988
			s0.128-2.096,0.385-2.977c0.255-0.879,0.627-1.627,1.115-2.244c0.488-0.615,1.08-1.092,1.776-1.428s1.476-0.504,2.34-0.504
			c0.72,0,1.368,0.148,1.944,0.443c0.576,0.297,1.071,0.686,1.487,1.164l0.673-0.719c-0.417-0.496-0.977-0.938-1.681-1.32
			c-0.704-0.385-1.512-0.576-2.424-0.576c-1.008,0-1.928,0.188-2.76,0.564c-0.832,0.375-1.544,0.92-2.136,1.631
			c-0.593,0.713-1.053,1.572-1.381,2.58s-0.491,2.137-0.491,3.385c0,1.264,0.159,2.404,0.479,3.42s0.771,1.881,1.356,2.592
			c0.584,0.713,1.284,1.26,2.1,1.645c0.816,0.383,1.712,0.576,2.688,0.576c1.023,0,1.911-0.201,2.664-0.602
			c0.752-0.398,1.432-0.951,2.04-1.654l-0.673-0.697C155.794,209.939,155.19,210.427,154.558,210.748z"/>
		<path fill="#2E9BB6" d="M167.691,201.722c-0.472-0.512-1.024-0.902-1.656-1.176c-0.632-0.271-1.292-0.408-1.979-0.408
			c-0.688,0-1.344,0.137-1.968,0.408c-0.624,0.273-1.173,0.664-1.645,1.176c-0.472,0.514-0.849,1.148-1.128,1.908
			c-0.28,0.762-0.42,1.621-0.42,2.58c0,0.961,0.14,1.813,0.42,2.557c0.279,0.744,0.656,1.371,1.128,1.885
			c0.472,0.512,1.021,0.902,1.645,1.176c0.624,0.271,1.279,0.408,1.968,0.408c0.688,0,1.348-0.137,1.979-0.408
			c0.632-0.273,1.185-0.664,1.656-1.176c0.472-0.514,0.848-1.141,1.128-1.885s0.42-1.596,0.42-2.557c0-0.959-0.14-1.818-0.42-2.58
			C168.539,202.871,168.163,202.236,167.691,201.722z M167.823,208.275c-0.208,0.625-0.492,1.16-0.852,1.607
			c-0.36,0.449-0.792,0.797-1.296,1.045s-1.044,0.371-1.62,0.371s-1.112-0.123-1.608-0.371s-0.924-0.596-1.284-1.045
			c-0.359-0.447-0.644-0.982-0.852-1.607c-0.208-0.623-0.313-1.313-0.313-2.064c0-0.768,0.104-1.463,0.313-2.088
			c0.208-0.623,0.492-1.164,0.852-1.619c0.36-0.457,0.788-0.809,1.284-1.057s1.032-0.371,1.608-0.371s1.116,0.123,1.62,0.371
			s0.936,0.6,1.296,1.057c0.359,0.455,0.644,0.996,0.852,1.619c0.208,0.625,0.313,1.32,0.313,2.088
			C168.135,206.962,168.031,207.652,167.823,208.275z"/>
		<path fill="#2E9BB6" d="M184.178,200.138c-0.672,0-1.324,0.213-1.956,0.637s-1.283,0.996-1.956,1.717
			c-0.208-0.721-0.56-1.293-1.056-1.717s-1.208-0.637-2.136-0.637c-0.641,0-1.276,0.197-1.908,0.588
			c-0.632,0.393-1.204,0.885-1.716,1.477h-0.072l-0.096-1.775h-0.912v11.52h1.056v-8.688c1.264-1.439,2.416-2.16,3.456-2.16
			c0.896,0,1.552,0.293,1.969,0.875c0.415,0.586,0.623,1.492,0.623,2.725v7.248h1.057v-8.688c1.264-1.439,2.416-2.16,3.456-2.16
			c0.88,0,1.527,0.293,1.943,0.875c0.416,0.586,0.624,1.492,0.624,2.725v7.248h1.08v-7.393
			C187.634,201.611,186.483,200.138,184.178,200.138z"/>
		<path fill="#2E9BB6" d="M203.22,200.138c-0.672,0-1.324,0.213-1.956,0.637s-1.283,0.996-1.956,1.717
			c-0.208-0.721-0.56-1.293-1.056-1.717s-1.208-0.637-2.136-0.637c-0.641,0-1.276,0.197-1.908,0.588
			c-0.632,0.393-1.204,0.885-1.716,1.477h-0.072l-0.096-1.775h-0.912v11.52h1.056v-8.688c1.264-1.439,2.416-2.16,3.456-2.16
			c0.896,0,1.552,0.293,1.969,0.875c0.415,0.586,0.623,1.492,0.623,2.725v7.248h1.057v-8.688c1.264-1.439,2.416-2.16,3.456-2.16
			c0.88,0,1.527,0.293,1.943,0.875c0.416,0.586,0.624,1.492,0.624,2.725v7.248h1.081v-7.393
			C206.677,201.611,205.525,200.138,203.22,200.138z"/>
		<path fill="#2E9BB6" d="M217.371,201.435c-0.287-0.4-0.664-0.717-1.127-0.947c-0.465-0.232-1.041-0.35-1.729-0.35
			c-0.465,0-0.912,0.053-1.344,0.156c-0.432,0.105-0.828,0.229-1.188,0.373c-0.361,0.143-0.689,0.303-0.984,0.48
			c-0.297,0.176-0.549,0.336-0.756,0.479l0.48,0.793c0.383-0.289,0.895-0.584,1.535-0.889c0.641-0.303,1.352-0.455,2.137-0.455
			c0.559,0,1.02,0.107,1.379,0.324c0.361,0.215,0.641,0.496,0.84,0.84c0.201,0.344,0.336,0.736,0.408,1.176s0.1,0.875,0.084,1.307
			c-2.561,0.289-4.439,0.77-5.639,1.441c-1.201,0.672-1.801,1.641-1.801,2.904c0,0.543,0.088,1.016,0.264,1.416
			c0.176,0.398,0.42,0.727,0.732,0.982c0.313,0.258,0.668,0.449,1.068,0.576c0.398,0.129,0.832,0.193,1.295,0.193
			c0.77,0,1.492-0.182,2.172-0.541s1.316-0.771,1.908-1.236h0.049l0.119,1.488h0.889v-7.367c0-0.625-0.061-1.205-0.18-1.74
			C217.863,202.302,217.66,201.835,217.371,201.435z M217.107,209.451c-0.719,0.609-1.383,1.072-1.992,1.393
			c-0.607,0.32-1.248,0.48-1.92,0.48c-0.656,0-1.223-0.176-1.703-0.529c-0.48-0.352-0.721-0.943-0.721-1.775
			c0-0.447,0.109-0.855,0.324-1.225c0.217-0.367,0.572-0.695,1.068-0.984c0.496-0.287,1.148-0.535,1.955-0.742
			c0.809-0.209,1.805-0.385,2.988-0.529V209.451z"/>
		<path fill="#2E9BB6" d="M226.935,200.138c-0.801,0-1.512,0.197-2.135,0.588c-0.625,0.393-1.232,0.885-1.824,1.477h-0.072
			l-0.096-1.775h-0.912v11.52h1.055v-8.688c0.705-0.721,1.336-1.26,1.896-1.621c0.561-0.359,1.184-0.539,1.873-0.539
			c0.943,0,1.619,0.293,2.027,0.875c0.408,0.586,0.611,1.492,0.611,2.725v7.248h1.057v-7.393c0-1.502-0.279-2.615-0.84-3.336
			C229.015,200.5,228.136,200.138,226.935,200.138z"/>
		<path fill="#2E9BB6" d="M242.021,199.443l0.049,2.111c-0.576-0.447-1.125-0.795-1.645-1.043s-1.133-0.373-1.836-0.373
			c-0.688,0-1.34,0.141-1.955,0.42c-0.617,0.281-1.16,0.686-1.633,1.213s-0.844,1.168-1.115,1.92
			c-0.273,0.752-0.408,1.592-0.408,2.52c0,1.953,0.432,3.445,1.295,4.477c0.865,1.031,2.025,1.549,3.48,1.549
			c0.768,0,1.469-0.182,2.1-0.541c0.633-0.359,1.18-0.771,1.645-1.236h0.072l0.096,1.488h0.912v-17.256h-1.057V199.443z
			 M242.021,209.404c-0.607,0.607-1.203,1.076-1.787,1.402c-0.584,0.328-1.197,0.492-1.836,0.492c-0.609,0-1.148-0.123-1.621-0.371
			c-0.471-0.248-0.867-0.592-1.188-1.031c-0.32-0.441-0.564-0.973-0.732-1.598c-0.168-0.623-0.252-1.318-0.252-2.088
			c0-0.719,0.104-1.395,0.313-2.027c0.207-0.633,0.492-1.176,0.852-1.633c0.361-0.455,0.789-0.814,1.285-1.08
			c0.494-0.264,1.031-0.395,1.607-0.395c0.561,0,1.107,0.111,1.645,0.336c0.535,0.225,1.107,0.607,1.715,1.152V209.404z"/>
		<path fill="#2E9BB6" d="M251.236,200.138c-0.639,0-1.26,0.141-1.859,0.42c-0.6,0.281-1.137,0.682-1.607,1.201
			c-0.473,0.52-0.85,1.156-1.129,1.908s-0.42,1.6-0.42,2.543c0,0.945,0.141,1.789,0.42,2.533s0.66,1.375,1.141,1.895
			c0.48,0.521,1.043,0.916,1.691,1.189c0.648,0.271,1.34,0.408,2.076,0.408c0.848,0,1.549-0.121,2.1-0.361
			c0.553-0.24,1.061-0.496,1.525-0.768l-0.434-0.816c-0.432,0.32-0.898,0.572-1.402,0.756c-0.504,0.186-1.068,0.277-1.693,0.277
			c-0.656,0-1.248-0.125-1.775-0.373s-0.98-0.592-1.355-1.031c-0.377-0.439-0.668-0.969-0.877-1.584
			c-0.207-0.615-0.32-1.285-0.336-2.004h8.305c0.031-0.145,0.047-0.289,0.047-0.432c0-0.145,0-0.289,0-0.434
			c0-1.695-0.391-3.008-1.176-3.936C253.693,200.603,252.613,200.138,251.236,200.138z M247.3,205.515
			c0.064-0.688,0.213-1.309,0.445-1.859c0.23-0.553,0.527-1.021,0.887-1.404c0.359-0.385,0.764-0.68,1.213-0.889
			c0.447-0.207,0.92-0.313,1.416-0.313c1.039,0,1.863,0.373,2.471,1.117c0.609,0.744,0.912,1.859,0.912,3.348H247.3z"/>
		<path fill="#2E9BB6" d="M263.501,200.187c-0.178-0.031-0.377-0.049-0.602-0.049c-0.688,0-1.307,0.225-1.859,0.672
			c-0.553,0.449-1.02,1.033-1.404,1.754h-0.072l-0.096-2.137h-0.912v11.52h1.057v-7.848c0.447-1.088,0.955-1.852,1.523-2.293
			c0.568-0.439,1.107-0.658,1.621-0.658c0.223,0,0.408,0.012,0.551,0.035c0.145,0.023,0.313,0.076,0.504,0.156l0.24-0.961
			C263.861,200.283,263.677,200.22,263.501,200.187z"/>
		<path fill="#2E9BB6" d="M133.34,9.408h3.217c1.775,0,3.159-0.38,4.151-1.14c0.992-0.76,1.488-1.916,1.488-3.468
			c0-0.816-0.128-1.504-0.384-2.064c-0.257-0.56-0.629-1.016-1.116-1.368c-0.488-0.352-1.08-0.604-1.776-0.756
			c-0.695-0.152-1.484-0.228-2.363-0.228h-4.32V16.2h1.104V9.408z M133.34,1.32h2.952c0.8,0,1.5,0.056,2.101,0.168
			c0.6,0.112,1.096,0.304,1.487,0.576c0.393,0.272,0.688,0.628,0.889,1.068c0.199,0.44,0.3,0.996,0.3,1.668
			c0,1.296-0.393,2.232-1.176,2.808c-0.784,0.576-1.984,0.864-3.601,0.864h-2.952V1.32z"/>
		<path fill="#2E9BB6" d="M144.404,13.32c0,0.544,0.088,1.016,0.265,1.416c0.176,0.4,0.42,0.728,0.731,0.984
			c0.313,0.256,0.668,0.448,1.068,0.576c0.399,0.127,0.832,0.192,1.296,0.192c0.769,0,1.492-0.18,2.172-0.54
			s1.316-0.772,1.908-1.236h0.048l0.12,1.488h0.888V8.832c0-0.624-0.06-1.204-0.18-1.74s-0.324-1.004-0.612-1.404
			c-0.288-0.399-0.664-0.716-1.128-0.948s-1.04-0.348-1.728-0.348c-0.465,0-0.912,0.052-1.344,0.156
			c-0.433,0.104-0.828,0.228-1.188,0.372c-0.36,0.144-0.688,0.304-0.984,0.48s-0.548,0.336-0.756,0.48l0.48,0.792
			c0.384-0.288,0.896-0.584,1.536-0.888c0.64-0.304,1.352-0.456,2.136-0.456c0.56,0,1.02,0.108,1.38,0.324
			c0.36,0.216,0.64,0.496,0.84,0.84c0.2,0.344,0.336,0.736,0.408,1.176c0.072,0.44,0.1,0.876,0.084,1.308
			c-2.561,0.288-4.44,0.768-5.64,1.44C145.004,11.088,144.404,12.057,144.404,13.32z M146.9,11.064
			c0.496-0.288,1.148-0.536,1.956-0.744s1.804-0.384,2.988-0.528v3.912c-0.72,0.608-1.384,1.072-1.992,1.392
			c-0.608,0.32-1.248,0.48-1.92,0.48c-0.656,0-1.224-0.176-1.704-0.528c-0.479-0.352-0.72-0.944-0.72-1.776
			c0-0.448,0.108-0.855,0.324-1.224S146.404,11.352,146.9,11.064z"/>
		<path fill="#2E9BB6" d="M156.812,13.008c0,0.512,0.044,0.984,0.132,1.416c0.088,0.432,0.244,0.8,0.469,1.104
			c0.224,0.304,0.52,0.54,0.888,0.708s0.832,0.252,1.392,0.252c0.24,0,0.528-0.04,0.864-0.12s0.672-0.184,1.008-0.312l-0.288-0.864
			c-0.208,0.096-0.443,0.18-0.708,0.252c-0.264,0.072-0.508,0.108-0.731,0.108c-0.4,0-0.725-0.06-0.972-0.18
			c-0.249-0.12-0.444-0.288-0.589-0.504c-0.144-0.216-0.244-0.472-0.3-0.768c-0.056-0.296-0.084-0.627-0.084-0.996V5.592h3.336V4.68
			h-3.336V1.344h-0.912l-0.144,3.336l-1.824,0.096v0.816h1.8V13.008z"/>
		<path fill="#2E9BB6" d="M164.514,1.896c0.272,0,0.5-0.087,0.685-0.264c0.184-0.176,0.275-0.4,0.275-0.672
			c0-0.304-0.092-0.54-0.275-0.708C165.014,0.084,164.787,0,164.514,0s-0.5,0.084-0.684,0.252c-0.185,0.168-0.276,0.404-0.276,0.708
			c0,0.272,0.092,0.497,0.276,0.672C164.014,1.809,164.242,1.896,164.514,1.896z"/>
		<rect x="163.962" y="4.68" fill="#2E9BB6" width="1.056" height="11.52"/>
		<path fill="#2E9BB6" d="M169.691,14.892c0.48,0.52,1.044,0.916,1.692,1.188s1.34,0.408,2.076,0.408c0.848,0,1.548-0.12,2.1-0.36
			c0.552-0.24,1.06-0.496,1.524-0.768l-0.433-0.816c-0.432,0.32-0.899,0.572-1.403,0.756s-1.068,0.276-1.692,0.276
			c-0.656,0-1.248-0.124-1.775-0.372c-0.528-0.248-0.98-0.592-1.356-1.032s-0.668-0.968-0.876-1.584s-0.32-1.284-0.336-2.004h8.304
			c0.032-0.144,0.048-0.288,0.048-0.432s0-0.288,0-0.432c0-1.696-0.392-3.008-1.176-3.936c-0.784-0.928-1.864-1.392-3.24-1.392
			c-0.64,0-1.26,0.14-1.859,0.42c-0.601,0.28-1.137,0.681-1.608,1.2c-0.472,0.52-0.849,1.156-1.128,1.908
			c-0.28,0.752-0.42,1.6-0.42,2.544s0.14,1.788,0.42,2.532C168.831,13.74,169.211,14.373,169.691,14.892z M169.656,7.908
			c0.231-0.552,0.527-1.02,0.888-1.404c0.359-0.384,0.764-0.68,1.212-0.888c0.447-0.208,0.92-0.312,1.416-0.312
			c1.04,0,1.863,0.372,2.472,1.116c0.608,0.744,0.912,1.86,0.912,3.348h-7.344C169.275,9.081,169.423,8.46,169.656,7.908z"/>
		<path fill="#2E9BB6" d="M181.523,7.512c0.704-0.72,1.336-1.26,1.896-1.62c0.56-0.36,1.184-0.54,1.872-0.54
			c0.943,0,1.62,0.292,2.027,0.876c0.408,0.584,0.612,1.492,0.612,2.724V16.2h1.056V8.808c0-1.503-0.279-2.616-0.84-3.336
			c-0.56-0.72-1.439-1.08-2.64-1.08c-0.801,0-1.512,0.196-2.136,0.588c-0.624,0.393-1.232,0.884-1.824,1.476h-0.072l-0.096-1.776
			h-0.912V16.2h1.056V7.512z"/>
		<path fill="#2E9BB6" d="M193.008,13.008c0,0.512,0.044,0.984,0.132,1.416c0.088,0.432,0.244,0.8,0.469,1.104
			c0.224,0.304,0.52,0.54,0.888,0.708s0.832,0.252,1.392,0.252c0.24,0,0.528-0.04,0.864-0.12s0.672-0.184,1.008-0.312l-0.288-0.864
			c-0.208,0.096-0.443,0.18-0.708,0.252c-0.264,0.072-0.508,0.108-0.731,0.108c-0.4,0-0.725-0.06-0.972-0.18
			c-0.249-0.12-0.444-0.288-0.589-0.504c-0.144-0.216-0.244-0.472-0.3-0.768c-0.056-0.296-0.084-0.627-0.084-0.996V5.592h3.336V4.68
			h-3.336V1.344h-0.912l-0.144,3.336l-1.824,0.096v0.816h1.8V13.008z"/>
		<path fill="#2E9BB6" d="M211.993,15.636c0.896-0.376,1.641-0.912,2.232-1.608c0.592-0.696,1.031-1.536,1.32-2.52
			c0.287-0.984,0.432-2.076,0.432-3.276c0-1.2-0.145-2.28-0.432-3.24c-0.289-0.96-0.729-1.784-1.32-2.472
			c-0.592-0.688-1.34-1.215-2.244-1.584c-0.904-0.368-1.965-0.552-3.18-0.552h-3.673V16.2h3.696
			C210.042,16.2,211.096,16.012,211.993,15.636z M206.232,15.264V1.32h2.448c1.072,0,1.996,0.168,2.773,0.504
			c0.775,0.336,1.41,0.808,1.906,1.416c0.496,0.608,0.865,1.336,1.105,2.184s0.359,1.784,0.359,2.808
			c0,1.04-0.119,1.988-0.359,2.844s-0.609,1.596-1.105,2.22s-1.131,1.108-1.906,1.452c-0.777,0.344-1.701,0.516-2.773,0.516H206.232
			z"/>
		<path fill="#2E9BB6" d="M218.254,13.32c0,0.544,0.088,1.016,0.264,1.416s0.42,0.728,0.732,0.984
			c0.313,0.256,0.668,0.448,1.068,0.576c0.398,0.127,0.832,0.192,1.295,0.192c0.77,0,1.492-0.18,2.172-0.54s1.316-0.772,1.908-1.236
			h0.049l0.119,1.488h0.889V8.832c0-0.624-0.061-1.204-0.18-1.74c-0.121-0.536-0.324-1.004-0.613-1.404
			c-0.287-0.399-0.664-0.716-1.127-0.948c-0.465-0.232-1.041-0.348-1.729-0.348c-0.465,0-0.912,0.052-1.344,0.156
			s-0.828,0.228-1.188,0.372c-0.361,0.144-0.689,0.304-0.984,0.48c-0.297,0.176-0.549,0.336-0.756,0.48l0.48,0.792
			c0.383-0.288,0.895-0.584,1.535-0.888c0.641-0.304,1.352-0.456,2.137-0.456c0.559,0,1.02,0.108,1.379,0.324
			c0.361,0.216,0.641,0.496,0.84,0.84c0.201,0.344,0.336,0.736,0.408,1.176c0.072,0.44,0.1,0.876,0.084,1.308
			c-2.561,0.288-4.439,0.768-5.639,1.44C218.854,11.088,218.254,12.057,218.254,13.32z M220.75,11.064
			c0.496-0.288,1.148-0.536,1.955-0.744c0.809-0.208,1.805-0.384,2.988-0.528v3.912c-0.719,0.608-1.383,1.072-1.992,1.392
			c-0.607,0.32-1.248,0.48-1.92,0.48c-0.656,0-1.223-0.176-1.703-0.528s-0.721-0.944-0.721-1.776c0-0.448,0.109-0.855,0.324-1.224
			C219.899,11.68,220.254,11.352,220.75,11.064z"/>
		<path fill="#2E9BB6" d="M230.665,13.008c0,0.512,0.043,0.984,0.131,1.416c0.088,0.432,0.244,0.8,0.469,1.104
			c0.225,0.304,0.52,0.54,0.889,0.708c0.367,0.168,0.832,0.252,1.391,0.252c0.24,0,0.529-0.04,0.865-0.12s0.672-0.184,1.008-0.312
			l-0.289-0.864c-0.207,0.096-0.443,0.18-0.707,0.252c-0.264,0.072-0.508,0.108-0.732,0.108c-0.4,0-0.725-0.06-0.971-0.18
			c-0.25-0.12-0.445-0.288-0.59-0.504c-0.143-0.216-0.244-0.472-0.299-0.768c-0.057-0.296-0.084-0.627-0.084-0.996V5.592h3.336V4.68
			h-3.336V1.344h-0.912l-0.145,3.336l-1.824,0.096v0.816h1.801V13.008z"/>
		<path fill="#2E9BB6" d="M237.217,13.32c0,0.544,0.088,1.016,0.264,1.416s0.42,0.728,0.732,0.984
			c0.313,0.256,0.668,0.448,1.068,0.576c0.398,0.127,0.832,0.192,1.295,0.192c0.77,0,1.492-0.18,2.172-0.54s1.316-0.772,1.908-1.236
			h0.049l0.119,1.488h0.889V8.832c0-0.624-0.061-1.204-0.18-1.74c-0.121-0.536-0.324-1.004-0.613-1.404
			c-0.287-0.399-0.664-0.716-1.127-0.948c-0.465-0.232-1.041-0.348-1.729-0.348c-0.465,0-0.912,0.052-1.344,0.156
			s-0.828,0.228-1.188,0.372c-0.361,0.144-0.689,0.304-0.984,0.48c-0.297,0.176-0.549,0.336-0.756,0.48l0.48,0.792
			c0.383-0.288,0.895-0.584,1.535-0.888c0.641-0.304,1.352-0.456,2.137-0.456c0.559,0,1.02,0.108,1.379,0.324
			c0.361,0.216,0.641,0.496,0.84,0.84c0.201,0.344,0.336,0.736,0.408,1.176c0.072,0.44,0.1,0.876,0.084,1.308
			c-2.561,0.288-4.439,0.768-5.639,1.44C237.817,11.088,237.217,12.057,237.217,13.32z M239.713,11.064
			c0.496-0.288,1.148-0.536,1.955-0.744c0.809-0.208,1.805-0.384,2.988-0.528v3.912c-0.719,0.608-1.383,1.072-1.992,1.392
			c-0.607,0.32-1.248,0.48-1.92,0.48c-0.656,0-1.223-0.176-1.703-0.528s-0.721-0.944-0.721-1.776c0-0.448,0.109-0.855,0.324-1.224
			C238.862,11.68,239.217,11.352,239.713,11.064z"/>
		<path fill="#2E9BB6" d="M5.328,286.619h1.943v2.016c-0.144,0.119-0.33,0.211-0.558,0.27c-0.229,0.061-0.462,0.09-0.702,0.09
			c-1.104,0-1.929-0.332-2.475-0.998c-0.547-0.666-0.819-1.605-0.819-2.818c0-0.586,0.075-1.115,0.226-1.584
			c0.149-0.467,0.362-0.863,0.639-1.188c0.275-0.324,0.603-0.572,0.98-0.746s0.795-0.262,1.251-0.262
			c0.505,0,0.915,0.078,1.233,0.234c0.317,0.156,0.621,0.371,0.909,0.648l1.458-1.639c-0.385-0.396-0.879-0.75-1.485-1.063
			c-0.605-0.311-1.323-0.467-2.15-0.467c-0.792,0-1.539,0.137-2.241,0.414c-0.702,0.275-1.314,0.678-1.836,1.205
			c-0.522,0.529-0.937,1.174-1.242,1.936S0,284.296,0,285.269c0,0.982,0.146,1.85,0.44,2.6s0.699,1.377,1.216,1.881
			c0.516,0.504,1.118,0.887,1.809,1.145c0.689,0.258,1.431,0.387,2.223,0.387c0.828,0,1.584-0.139,2.269-0.414
			c0.684-0.277,1.235-0.613,1.656-1.008v-5.4H5.328V286.619z"/>
		<path fill="#2E9BB6" d="M15.101,289.138c-0.042,0-0.093,0-0.152,0c-0.108,0-0.213-0.055-0.315-0.162
			c-0.102-0.107-0.152-0.299-0.152-0.576v-9.953h-2.646v9.846c0,0.455,0.042,0.867,0.126,1.232c0.084,0.367,0.219,0.678,0.405,0.936
			c0.186,0.26,0.435,0.459,0.747,0.604c0.312,0.145,0.695,0.217,1.151,0.217c0.3,0,0.562-0.021,0.783-0.064
			c0.222-0.041,0.405-0.092,0.549-0.152l-0.323-1.961C15.2,289.126,15.143,289.138,15.101,289.138z"/>
		<path fill="#2E9BB6" d="M22.207,288.041c-0.264,0.348-0.51,0.6-0.737,0.756c-0.229,0.156-0.511,0.234-0.847,0.234
			c-0.384,0-0.666-0.121-0.846-0.361c-0.18-0.238-0.271-0.684-0.271-1.332v-5.201h-2.646v5.545c0,1.127,0.219,2.01,0.657,2.645
			c0.438,0.637,1.143,0.955,2.114,0.955c0.612,0,1.138-0.129,1.575-0.387c0.438-0.258,0.849-0.615,1.233-1.072h0.054l0.198,1.242
			h2.16v-8.928h-2.646V288.041z"/>
		<path fill="#2E9BB6" d="M32.206,288.941c-0.265,0.131-0.558,0.197-0.882,0.197c-0.576,0-1.054-0.229-1.432-0.684
			c-0.378-0.457-0.566-1.074-0.566-1.854c0-0.781,0.186-1.398,0.558-1.855c0.372-0.455,0.882-0.684,1.53-0.684
			c0.407,0,0.821,0.174,1.242,0.521l1.206-1.637c-0.301-0.313-0.673-0.561-1.116-0.748c-0.444-0.186-0.942-0.279-1.494-0.279
			c-0.612,0-1.2,0.105-1.764,0.316c-0.564,0.209-1.06,0.512-1.485,0.908s-0.765,0.885-1.017,1.467s-0.378,1.246-0.378,1.99
			s0.113,1.406,0.342,1.988c0.228,0.582,0.54,1.07,0.936,1.467c0.396,0.396,0.861,0.699,1.396,0.908
			c0.533,0.211,1.112,0.316,1.736,0.316c0.492,0,1.002-0.09,1.53-0.271c0.528-0.18,1.008-0.461,1.44-0.846l-1.063-1.674
			C32.71,288.658,32.47,288.808,32.206,288.941z"/>
		<path fill="#2E9BB6" d="M40.702,290.964c0.522-0.209,0.984-0.512,1.386-0.908c0.402-0.396,0.724-0.885,0.964-1.467
			c0.239-0.582,0.359-1.244,0.359-1.988s-0.12-1.408-0.359-1.99c-0.24-0.582-0.562-1.07-0.964-1.467
			c-0.401-0.396-0.863-0.699-1.386-0.908c-0.521-0.211-1.064-0.316-1.629-0.316s-1.11,0.105-1.638,0.316
			c-0.528,0.209-0.993,0.512-1.396,0.908s-0.723,0.885-0.963,1.467s-0.359,1.246-0.359,1.99s0.119,1.406,0.359,1.988
			s0.561,1.07,0.963,1.467s0.867,0.699,1.396,0.908c0.527,0.211,1.073,0.316,1.638,0.316S40.181,291.175,40.702,290.964z
			 M37.841,288.455c-0.271-0.457-0.405-1.074-0.405-1.854c0-0.781,0.135-1.398,0.405-1.855c0.27-0.455,0.681-0.684,1.232-0.684
			c0.54,0,0.948,0.229,1.224,0.684c0.276,0.457,0.414,1.074,0.414,1.855c0,0.779-0.138,1.396-0.414,1.854
			c-0.275,0.455-0.684,0.684-1.224,0.684C38.521,289.138,38.11,288.91,37.841,288.455z"/>
		<path fill="#2E9BB6" d="M51.649,284.603l-0.702,2.051h-0.071l-0.702-2.051l-1.962-5.275h-2.809v11.736h2.431v-4.301
			c0-0.289-0.013-0.607-0.036-0.955c-0.024-0.348-0.052-0.699-0.081-1.053c-0.03-0.354-0.063-0.703-0.1-1.045
			c-0.035-0.342-0.071-0.656-0.107-0.943h0.072l0.936,2.717l1.8,4.555h1.063l1.8-4.555l0.972-2.717h0.072
			c-0.036,0.287-0.072,0.602-0.108,0.943s-0.071,0.691-0.107,1.045s-0.066,0.705-0.09,1.053c-0.024,0.348-0.036,0.666-0.036,0.955
			v4.301h2.466v-11.736h-2.79L51.649,284.603z"/>
		<path fill="#2E9BB6" d="M65.405,283.144c-0.318-0.383-0.714-0.684-1.188-0.9c-0.475-0.215-1.029-0.324-1.665-0.324
			c-0.54,0-1.063,0.109-1.566,0.324c-0.504,0.217-0.951,0.525-1.341,0.928c-0.391,0.402-0.705,0.895-0.945,1.477
			s-0.359,1.232-0.359,1.953c0,0.744,0.113,1.402,0.342,1.979c0.228,0.576,0.546,1.066,0.954,1.467
			c0.407,0.402,0.888,0.709,1.439,0.918c0.552,0.211,1.146,0.316,1.782,0.316c0.54,0,1.089-0.09,1.647-0.271
			c0.558-0.18,1.064-0.426,1.521-0.736l-0.882-1.604c-0.648,0.396-1.29,0.596-1.926,0.596c-0.601,0-1.107-0.154-1.521-0.459
			c-0.414-0.307-0.681-0.803-0.801-1.486h5.346c0.024-0.107,0.048-0.26,0.072-0.459c0.023-0.197,0.036-0.416,0.036-0.656
			c0-0.613-0.078-1.18-0.234-1.701S65.724,283.529,65.405,283.144z M60.878,285.683c0.097-0.602,0.304-1.041,0.621-1.324
			c0.318-0.281,0.688-0.422,1.107-0.422c0.54,0,0.924,0.162,1.152,0.484c0.228,0.324,0.342,0.744,0.342,1.262H60.878z"/>
		<path fill="#2E9BB6" d="M70.212,291.029c0.39,0.168,0.86,0.252,1.413,0.252c0.432,0,0.81-0.037,1.134-0.109
			c0.324-0.07,0.605-0.143,0.846-0.215l-0.414-1.926c-0.12,0.047-0.255,0.09-0.405,0.125c-0.149,0.037-0.297,0.055-0.44,0.055
			c-0.349,0-0.627-0.111-0.837-0.334c-0.21-0.221-0.315-0.584-0.315-1.088v-3.582h2.143v-2.07h-2.143v-2.377h-2.195l-0.307,2.377
			l-1.368,0.107v1.963h1.225v3.617c0,0.516,0.057,0.988,0.171,1.414c0.113,0.426,0.294,0.789,0.54,1.088
			C69.503,290.626,69.821,290.861,70.212,291.029z"/>
		<path fill="#2E9BB6" d="M78.667,284.603c0.366-0.24,0.718-0.361,1.054-0.361c0.191,0,0.359,0.012,0.504,0.037
			c0.144,0.023,0.3,0.061,0.468,0.107l0.432-2.285c-0.132-0.061-0.278-0.105-0.44-0.137c-0.162-0.029-0.369-0.045-0.621-0.045
			c-0.456,0-0.912,0.145-1.368,0.434c-0.456,0.287-0.846,0.736-1.17,1.35h-0.072l-0.18-1.566h-2.16v8.928h2.646v-5.184
			C77.998,285.269,78.301,284.843,78.667,284.603z"/>
		<rect x="82.317" y="282.136" fill="#2E9BB6" width="2.646" height="8.928"/>
		<path fill="#2E9BB6" d="M83.632,280.822c0.455,0,0.824-0.129,1.106-0.387s0.423-0.59,0.423-0.998s-0.141-0.738-0.423-0.99
			s-0.651-0.379-1.106-0.379c-0.444,0-0.811,0.127-1.099,0.379s-0.432,0.582-0.432,0.99s0.144,0.74,0.432,0.998
			S83.188,280.822,83.632,280.822z"/>
		<path fill="#2E9BB6" d="M89.359,290.964c0.533,0.211,1.112,0.316,1.736,0.316c0.492,0,1.002-0.09,1.53-0.271
			c0.528-0.18,1.008-0.461,1.44-0.846l-1.063-1.674c-0.216,0.168-0.456,0.318-0.72,0.451c-0.265,0.131-0.558,0.197-0.882,0.197
			c-0.576,0-1.054-0.229-1.432-0.684c-0.378-0.457-0.566-1.074-0.566-1.854c0-0.781,0.186-1.398,0.558-1.855
			c0.372-0.455,0.882-0.684,1.53-0.684c0.407,0,0.821,0.174,1.242,0.521l1.206-1.637c-0.301-0.313-0.673-0.561-1.116-0.748
			c-0.444-0.186-0.942-0.279-1.494-0.279c-0.612,0-1.2,0.105-1.764,0.316c-0.564,0.209-1.06,0.512-1.485,0.908
			s-0.765,0.885-1.017,1.467s-0.378,1.246-0.378,1.99s0.113,1.406,0.342,1.988c0.228,0.582,0.54,1.07,0.936,1.467
			C88.36,290.453,88.825,290.755,89.359,290.964z"/>
		<path fill="#2E9BB6" d="M101.363,286.601c-0.233-0.205-0.492-0.375-0.773-0.514c-0.282-0.139-0.567-0.262-0.855-0.369
			c-0.228-0.084-0.447-0.164-0.656-0.242c-0.211-0.078-0.396-0.16-0.559-0.244s-0.291-0.176-0.387-0.279
			c-0.097-0.102-0.145-0.225-0.145-0.369c0-0.467,0.336-0.701,1.009-0.701c0.312,0,0.623,0.066,0.936,0.197
			c0.313,0.133,0.63,0.318,0.954,0.559l1.188-1.584c-0.385-0.287-0.835-0.549-1.351-0.783s-1.116-0.352-1.8-0.352
			c-0.517,0-0.984,0.07-1.404,0.207c-0.42,0.139-0.78,0.328-1.08,0.568s-0.53,0.533-0.692,0.881
			c-0.162,0.35-0.243,0.727-0.243,1.135c0,0.371,0.072,0.699,0.216,0.98c0.145,0.283,0.33,0.529,0.558,0.738
			c0.229,0.211,0.48,0.387,0.757,0.531c0.275,0.145,0.552,0.27,0.827,0.377c0.229,0.098,0.45,0.184,0.666,0.262
			c0.217,0.078,0.411,0.166,0.585,0.262s0.313,0.201,0.414,0.314c0.103,0.113,0.153,0.242,0.153,0.387c0,0.24-0.09,0.426-0.27,0.559
			c-0.181,0.131-0.469,0.197-0.864,0.197c-0.385,0-0.763-0.078-1.134-0.234c-0.372-0.154-0.763-0.389-1.17-0.701l-1.188,1.656
			c0.456,0.371,0.993,0.672,1.611,0.9c0.617,0.227,1.221,0.342,1.809,0.342c0.6,0,1.128-0.076,1.584-0.225
			c0.456-0.15,0.84-0.355,1.152-0.613c0.312-0.258,0.546-0.561,0.702-0.908c0.155-0.348,0.233-0.727,0.233-1.135
			s-0.071-0.758-0.216-1.053C101.787,287.054,101.598,286.804,101.363,286.601z"/>
		<path fill="#2E9BB6" d="M41.826,303.203l-4.177,11.861h0.828l1.404-4.068h4.698l1.386,4.068h0.864l-4.176-11.861H41.826z
			 M43.59,308.08l0.756,2.215h-4.212l0.756-2.215c0.24-0.707,0.468-1.385,0.685-2.033c0.216-0.648,0.426-1.338,0.63-2.07h0.071
			c0.204,0.732,0.414,1.422,0.631,2.07C43.122,306.695,43.35,307.373,43.59,308.08z"/>
		<path fill="#2E9BB6" d="M52.426,306.208c-0.6,0-1.134,0.146-1.602,0.441c-0.468,0.293-0.924,0.662-1.368,1.105h-0.054
			l-0.072-1.332h-0.684v8.641h0.792v-6.516c0.527-0.541,1.002-0.945,1.422-1.215s0.888-0.406,1.404-0.406
			c0.707,0,1.215,0.221,1.521,0.658s0.459,1.119,0.459,2.043v5.436h0.792v-5.543c0-1.129-0.21-1.963-0.63-2.502
			C53.986,306.478,53.326,306.208,52.426,306.208z"/>
		<path fill="#2E9BB6" d="M63.104,307.181c-0.216-0.301-0.498-0.537-0.847-0.713c-0.348-0.174-0.779-0.26-1.296-0.26
			c-0.348,0-0.684,0.039-1.008,0.117s-0.621,0.17-0.891,0.279c-0.271,0.107-0.517,0.227-0.738,0.359s-0.411,0.252-0.567,0.359
			l0.36,0.594c0.288-0.215,0.672-0.438,1.152-0.666c0.479-0.227,1.014-0.342,1.602-0.342c0.42,0,0.766,0.082,1.035,0.244
			c0.271,0.162,0.479,0.371,0.63,0.629s0.252,0.553,0.306,0.883c0.055,0.33,0.075,0.656,0.063,0.98
			c-1.92,0.217-3.33,0.576-4.23,1.08c-0.899,0.504-1.35,1.23-1.35,2.178c0,0.408,0.065,0.762,0.198,1.063
			c0.132,0.301,0.314,0.547,0.549,0.738s0.501,0.336,0.801,0.432s0.624,0.145,0.973,0.145c0.575,0,1.118-0.135,1.629-0.406
			c0.51-0.27,0.986-0.578,1.431-0.926h0.036l0.09,1.115h0.666v-5.525c0-0.469-0.045-0.902-0.135-1.305S63.319,307.48,63.104,307.181
			z M62.905,313.193c-0.54,0.455-1.038,0.803-1.494,1.043s-0.936,0.361-1.439,0.361c-0.492,0-0.918-0.133-1.278-0.396
			s-0.54-0.709-0.54-1.332c0-0.336,0.081-0.643,0.243-0.918c0.162-0.277,0.429-0.523,0.801-0.738
			c0.372-0.217,0.861-0.402,1.467-0.559c0.606-0.156,1.353-0.287,2.241-0.396V313.193z"/>
		<path fill="#2E9BB6" d="M67.819,314.578c-0.043,0-0.081,0-0.117,0c-0.108,0-0.198-0.045-0.271-0.135
			c-0.071-0.09-0.107-0.23-0.107-0.422v-11.898h-0.792v11.789c0,0.912,0.354,1.369,1.062,1.369c0.132,0,0.24-0.01,0.324-0.027
			s0.168-0.039,0.252-0.063l-0.144-0.648C67.93,314.566,67.861,314.578,67.819,314.578z"/>
		<path fill="#2E9BB6" d="M73.989,311.861c-0.12,0.359-0.249,0.756-0.387,1.188s-0.273,0.84-0.405,1.225h-0.072
			c-0.168-0.385-0.332-0.793-0.494-1.225s-0.31-0.828-0.441-1.188l-2.088-5.438h-0.864l3.546,8.803l-0.233,0.756
			c-0.217,0.66-0.504,1.207-0.864,1.639s-0.811,0.648-1.35,0.648c-0.133,0-0.259-0.016-0.379-0.045
			c-0.12-0.031-0.228-0.064-0.323-0.1l-0.181,0.701c0.265,0.121,0.559,0.18,0.883,0.18c0.384,0,0.729-0.08,1.034-0.242
			c0.307-0.162,0.576-0.379,0.811-0.648c0.233-0.27,0.438-0.576,0.612-0.918c0.173-0.342,0.32-0.693,0.44-1.053l3.42-9.721h-0.81
			L73.989,311.861z"/>
		<path fill="#2E9BB6" d="M82.092,314.498c-0.198,0.053-0.381,0.08-0.549,0.08c-0.3,0-0.543-0.045-0.729-0.135
			c-0.186-0.09-0.333-0.215-0.44-0.377c-0.108-0.162-0.184-0.355-0.226-0.576c-0.042-0.223-0.063-0.471-0.063-0.748v-5.633h2.502
			v-0.686h-2.502v-2.502h-0.684l-0.108,2.502l-1.368,0.072v0.613h1.35v5.561c0,0.385,0.033,0.738,0.1,1.063
			c0.065,0.324,0.183,0.6,0.351,0.828s0.39,0.404,0.666,0.531c0.276,0.125,0.624,0.189,1.044,0.189c0.181,0,0.396-0.031,0.648-0.09
			c0.252-0.061,0.504-0.139,0.756-0.234l-0.216-0.648C82.467,314.38,82.29,314.443,82.092,314.498z"/>
		<rect x="84.672" y="306.423" fill="#2E9BB6" width="0.792" height="8.641"/>
		<path fill="#2E9BB6" d="M85.086,302.914c-0.204,0-0.376,0.064-0.514,0.189c-0.138,0.127-0.207,0.303-0.207,0.531
			c0,0.205,0.069,0.371,0.207,0.504s0.31,0.197,0.514,0.197c0.203,0,0.375-0.064,0.513-0.197s0.207-0.299,0.207-0.504
			c0-0.229-0.069-0.404-0.207-0.531C85.461,302.978,85.289,302.914,85.086,302.914z"/>
		<path fill="#2E9BB6" d="M93.063,314.291c-0.39,0.191-0.813,0.287-1.269,0.287c-0.469,0-0.897-0.092-1.287-0.279
			c-0.391-0.186-0.721-0.445-0.99-0.781c-0.271-0.336-0.48-0.738-0.63-1.207c-0.15-0.469-0.226-0.984-0.226-1.547
			c0-0.576,0.081-1.1,0.243-1.566c0.162-0.469,0.384-0.873,0.666-1.215s0.612-0.607,0.99-0.793s0.789-0.279,1.233-0.279
			c0.419,0,0.798,0.088,1.134,0.262s0.642,0.393,0.918,0.656l0.468-0.557c-0.288-0.277-0.633-0.523-1.035-0.738
			c-0.402-0.217-0.903-0.324-1.503-0.324c-0.528,0-1.029,0.102-1.503,0.307c-0.475,0.203-0.891,0.498-1.251,0.881
			c-0.36,0.385-0.648,0.861-0.864,1.432s-0.324,1.215-0.324,1.936c0,0.719,0.1,1.357,0.298,1.916
			c0.197,0.559,0.474,1.029,0.827,1.412c0.354,0.385,0.769,0.68,1.242,0.883c0.475,0.203,0.993,0.307,1.558,0.307
			c0.552,0,1.056-0.109,1.512-0.324c0.456-0.217,0.87-0.492,1.242-0.828l-0.414-0.541C93.799,313.865,93.453,314.099,93.063,314.291
			z"/>
		<path fill="#2E9BB6" d="M101.111,311.085c-0.27-0.191-0.573-0.354-0.909-0.484c-0.336-0.133-0.672-0.266-1.008-0.396
			c-0.252-0.096-0.501-0.195-0.747-0.297s-0.465-0.219-0.657-0.352c-0.191-0.133-0.345-0.285-0.459-0.459s-0.171-0.387-0.171-0.639
			c0-0.191,0.039-0.385,0.117-0.576s0.198-0.359,0.36-0.504s0.362-0.262,0.603-0.352s0.528-0.135,0.864-0.135
			c0.443,0,0.828,0.076,1.152,0.225c0.323,0.15,0.63,0.334,0.918,0.549l0.432-0.557c-0.313-0.264-0.688-0.48-1.125-0.648
			c-0.438-0.168-0.885-0.252-1.341-0.252s-0.855,0.061-1.197,0.18c-0.342,0.121-0.633,0.285-0.873,0.494
			c-0.24,0.211-0.42,0.457-0.54,0.738c-0.12,0.283-0.18,0.58-0.18,0.893c0,0.371,0.081,0.686,0.243,0.943
			c0.161,0.26,0.374,0.48,0.639,0.666c0.264,0.188,0.561,0.346,0.891,0.479c0.33,0.131,0.657,0.258,0.981,0.377
			c0.252,0.096,0.501,0.197,0.747,0.307c0.245,0.107,0.471,0.234,0.675,0.377c0.204,0.145,0.369,0.318,0.495,0.523
			c0.126,0.203,0.188,0.438,0.188,0.701c0,0.457-0.171,0.855-0.513,1.197s-0.854,0.514-1.539,0.514
			c-0.624,0-1.146-0.105-1.565-0.316c-0.421-0.209-0.816-0.471-1.188-0.783l-0.468,0.594c0.384,0.324,0.846,0.604,1.386,0.838
			s1.134,0.352,1.782,0.352c0.468,0,0.882-0.066,1.242-0.199c0.359-0.131,0.666-0.309,0.918-0.531
			c0.252-0.221,0.44-0.479,0.566-0.773c0.126-0.293,0.189-0.604,0.189-0.926c0-0.42-0.084-0.771-0.252-1.055
			C101.601,311.515,101.382,311.279,101.111,311.085z"/>
		<path fill="#2E9BB6" d="M189.829,362.868v-53.267h-1.5v53.267c0,14.855,12.085,26.94,26.94,26.94h202.337v-1.5H215.269
			C201.241,388.308,189.829,376.896,189.829,362.868z"/>
	</g>
</g>
<g id="Glucommander">
</g>
<g id="GlyCloud">
</g>
<g id="SmartClick_x0D_EMR_Integration">
</g>
<g id="GlucoMetrics_x0D_Analytics_x0D_">
</g>
<g id="GlucoSurveillance_Patient_risk__identification_1_">
</g>
</svg>
