<?xml version="1.0" encoding="utf-8"?>
<!-- Generator: Adobe Illustrator 16.0.0, SVG Export Plug-In . SVG Version: 6.00 Build 0)  -->
<!DOCTYPE svg PUBLIC "-//W3C//DTD SVG 1.1//EN" "http://www.w3.org/Graphics/SVG/1.1/DTD/svg11.dtd">
<svg version="1.1" id="linked_in_1_" opacity="0.502"
	 xmlns="http://www.w3.org/2000/svg" xmlns:xlink="http://www.w3.org/1999/xlink" x="0px" y="0px" width="36px" height="36px"
	 viewBox="0 0 36 36" enable-background="new 0 0 36 36" xml:space="preserve">
<g id="linked_in">
	<g>
		<path fill-rule="evenodd" clip-rule="evenodd" fill="#267A95" d="M18.24,0.487c-9.745,0-17.645,7.9-17.645,17.646
			c0,9.744,7.9,17.645,17.645,17.645c9.745,0,17.645-7.9,17.645-17.645C35.885,8.388,27.985,0.487,18.24,0.487z M13.013,27H8.98
			V13.987h4.033V27z M11.122,12.354h-0.027c-1.438,0-2.368-0.99-2.368-2.229c0-1.264,0.958-2.226,2.423-2.226
			s2.118,0.962,2.146,2.226C13.295,11.363,12.615,12.354,11.122,12.354z M28.022,27h-4.096v-6.895c0-1.732-0.808-2.914-2.357-2.914
			c-1.184,0-2.139,0.797-2.448,1.566c-0.113,0.275-0.141,0.659-0.141,1.045V27h-4.034c0,0,0.057-11.804,0-13.013h4.034v1.951
			c0.568-0.878,1.836-2.129,4.11-2.129c2.819,0,4.932,1.843,4.932,5.801V27z M18.98,15.981v-0.043
			c-0.01,0.014-0.02,0.028-0.029,0.043H18.98z"/>
	</g>
</g>
</svg>
