<?xml version="1.0" encoding="utf-8"?>
<!-- Generator: Adobe Illustrator 16.0.0, SVG Export Plug-In . SVG Version: 6.00 Build 0)  -->
<!DOCTYPE svg PUBLIC "-//W3C//DTD SVG 1.1//EN" "http://www.w3.org/Graphics/SVG/1.1/DTD/svg11.dtd">
<svg version="1.1" xmlns="http://www.w3.org/2000/svg" xmlns:xlink="http://www.w3.org/1999/xlink" x="0px" y="0px" width="36px"
	 height="30px" viewBox="0 0 36 30" enable-background="new 0 0 36 30" xml:space="preserve">
<g id="Ellipse_1_copy_8_1_" enable-background="new    ">
</g>
<g id="Ellipse_1_copy_9_1_" enable-background="new    ">
</g>
<g id="Ellipse_1_copy_10_1_" enable-background="new    ">
	<g>
		<path fill="#FFFFFF" d="M8.916,7.285c1.596,0,2.895-1.299,2.895-2.895s-1.299-2.895-2.895-2.895S6.021,2.793,6.021,4.39
			S7.32,7.285,8.916,7.285z M8.916,2.495c1.045,0,1.895,0.85,1.895,1.895s-0.85,1.895-1.895,1.895S7.021,5.435,7.021,4.39
			S7.871,2.495,8.916,2.495z"/>
		<path fill="#FFFFFF" d="M28.305,7.285c1.596,0,2.895-1.299,2.895-2.895S29.9,1.495,28.305,1.495c-1.597,0-2.896,1.299-2.896,2.895
			S26.708,7.285,28.305,7.285z M28.305,2.495c1.045,0,1.895,0.85,1.895,1.895s-0.85,1.895-1.895,1.895s-1.896-0.85-1.896-1.895
			S27.26,2.495,28.305,2.495z"/>
		<path fill="#FFFFFF" d="M33.49,18.127c-0.246-0.123-0.548-0.026-0.672,0.221c-2.784,5.511-8.347,8.934-14.517,8.934
			c-6.169,0-11.732-3.423-14.518-8.933c-0.125-0.246-0.426-0.345-0.672-0.221c-0.247,0.125-0.345,0.426-0.221,0.672
			c2.957,5.849,8.861,9.481,15.41,9.481c6.55,0,12.454-3.634,15.409-9.482C33.836,18.553,33.736,18.252,33.49,18.127z"/>
	</g>
</g>
</svg>
