<?xml version="1.0" encoding="utf-8"?>
<!-- Generator: Adobe Illustrator 16.0.0, SVG Export Plug-In . SVG Version: 6.00 Build 0)  -->
<!DOCTYPE svg PUBLIC "-//W3C//DTD SVG 1.1//EN" "http://www.w3.org/Graphics/SVG/1.1/DTD/svg11.dtd">
<svg version="1.1" id="Vector_Smart_Object_xA0_Image_1_"
	 xmlns="http://www.w3.org/2000/svg" xmlns:xlink="http://www.w3.org/1999/xlink" x="0px" y="0px" width="22.218px"
	 height="36.846px" viewBox="0 0 22.218 36.846" enable-background="new 0 0 22.218 36.846" xml:space="preserve">
<g>
	<path fill="#ffffff" d="M18.758,0H3.46C1.552,0,0,1.552,0,3.46v29.927c0,1.908,1.553,3.459,3.46,3.459h15.298
		c1.909,0,3.46-1.553,3.46-3.459V3.46C22.22,1.552,20.667,0,18.758,0z M19.946,33.387c0,0.654-0.532,1.188-1.187,1.188H3.46
		c-0.653,0-1.186-0.533-1.186-1.188V3.46c0-0.653,0.533-1.186,1.186-1.186h15.299c0.654,0,1.187,0.532,1.187,1.186V33.387z"/>
	<path fill="#ffffff" d="M16.703,3.417H5.57c-1.141,0-2.068,0.941-2.068,2.099v22.148c0,1.157,0.929,2.099,2.068,2.099h11.133
		c1.141,0,2.068-0.941,2.068-2.099V5.516C18.772,4.358,17.843,3.417,16.703,3.417z M18.014,27.663c0,0.74-0.587,1.342-1.312,1.342
		H5.571c-0.723,0-1.311-0.602-1.311-1.342V5.515c0-0.739,0.588-1.341,1.311-1.341h11.132c0.725,0,1.312,0.602,1.312,1.341V27.663z"
		/>
	<circle fill="#ffffff" cx="11.11" cy="32.348" r="1.447"/>
</g>
</svg>
