<?xml version="1.0" encoding="utf-8"?>
<!-- Generator: Adobe Illustrator 16.0.0, SVG Export Plug-In . SVG Version: 6.00 Build 0)  -->
<!DOCTYPE svg PUBLIC "-//W3C//DTD SVG 1.1//EN" "http://www.w3.org/Graphics/SVG/1.1/DTD/svg11.dtd">
<svg version="1.1" id="Shape_9_copy_1_" xmlns="http://www.w3.org/2000/svg" xmlns:xlink="http://www.w3.org/1999/xlink" x="0px"
	 y="0px" width="28.342px" height="29.941px" viewBox="0 0 28.342 29.941" enable-background="new 0 0 28.342 29.941"
	 xml:space="preserve">
<path fill="#35B3C7" d="M27.342,14.971c0,0,0-0.111-0.001-0.167C27.252,7.543,21.317,1.663,14.035,1.663
	c-4.608,0-8.824,2.333-11.278,6.242l-0.14,0.229L4.118,0l2.128,2.958c0,0,0.168-0.108,0.253-0.161
	c2.222-1.376,4.815-2.133,7.536-2.133c7.834,0,14.217,6.328,14.308,14.141c0,0.056,0,0.167,0,0.167H27.342z"/>
<path fill="#35B3C7" d="M1,14.971c0,0,0.001,0.173,0.003,0.259c0.138,7.219,6.053,13.049,13.305,13.049
	c4.607,0,8.824-2.334,11.277-6.242l0.141-0.229l-1.5,8.134l-2.129-2.958c0,0-0.168,0.109-0.254,0.162
	c-2.221,1.376-4.814,2.133-7.535,2.133c-7.814,0-14.184-6.295-14.306-14.08C0,15.123,0,14.971,0,14.971H1z"/>
</svg>
