<?xml version="1.0" encoding="utf-8"?>
<!-- Generator: Adobe Illustrator 16.0.0, SVG Export Plug-In . SVG Version: 6.00 Build 0)  -->
<!DOCTYPE svg PUBLIC "-//W3C//DTD SVG 1.1//EN" "http://www.w3.org/Graphics/SVG/1.1/DTD/svg11.dtd">
<svg version="1.1" id="syringe_xA0_Image_1_" xmlns="http://www.w3.org/2000/svg" xmlns:xlink="http://www.w3.org/1999/xlink"
	 x="0px" y="0px" width="30.504px" height="30.545px" viewBox="0 0 30.504 30.545" enable-background="new 0 0 30.504 30.545"
	 xml:space="preserve">
<g>
	<path fill="#2A9CB7" d="M30.309,3.399l-3.204-3.204c-0.221-0.221-0.525-0.276-0.746-0.054c-0.223,0.221-0.167,0.525,0.054,0.747
		l3.204,3.204c0.222,0.222,0.525,0.276,0.747,0.055C30.584,3.925,30.531,3.621,30.309,3.399z"/>
	<path fill="#2A9CB7" d="M26.996,2.856l-4.845,4.846l-1.129-1.129c-0.699-0.699-1.51-0.386-1.869-0.026L3.197,22.501
		c-0.492,0.492-0.677,1.564-0.173,2.068l1.129,1.13L0,29.853l0.692,0.692l4.153-4.154L5.9,27.446
		c0.515,0.515,1.66,0.385,2.143-0.099L24,11.392c0.342-0.342,0.624-1.218-0.102-1.943l-1.055-1.055l4.846-4.845L26.996,2.856z
		 M23.206,10.14c0.084,0.085,0.034,0.626,0.024,0.636l-2.464,2.464l-1.35-1.35c-0.222-0.222-0.525-0.277-0.747-0.055
		c-0.222,0.222-0.166,0.525,0.055,0.748l1.35,1.35l-1.384,1.384l-1.351-1.35c-0.221-0.221-0.524-0.276-0.746-0.055
		c-0.223,0.221-0.167,0.526,0.054,0.747l1.351,1.35l-1.385,1.384l-1.35-1.35c-0.221-0.221-0.525-0.276-0.747-0.055
		c-0.222,0.222-0.167,0.526,0.054,0.747l1.351,1.351l-1.385,1.384l-1.35-1.351c-0.221-0.221-0.526-0.276-0.747-0.054
		c-0.222,0.222-0.167,0.525,0.055,0.746l1.35,1.351l-1.384,1.384l-1.35-1.349c-0.222-0.223-0.526-0.277-0.748-0.056
		c-0.222,0.222-0.167,0.525,0.055,0.747l1.35,1.35l-1.385,1.385l-1.35-1.35c-0.221-0.221-0.525-0.276-0.747-0.055
		c-0.222,0.221-0.167,0.525,0.055,0.747l1.35,1.35L7.356,26.65c-0.042,0.042-0.68,0.188-0.764,0.104l-1.055-1.055l0,0l-0.692-0.691
		l0,0l-1.129-1.129c-0.081-0.082,0.139-0.649,0.173-0.684L19.775,7.309c0.006-0.007,0.486-0.113,0.555-0.043L23.206,10.14z"/>
</g>
</svg>
