<?xml version="1.0" encoding="utf-8"?>
<!-- Generator: Adobe Illustrator 16.0.0, SVG Export Plug-In . SVG Version: 6.00 Build 0)  -->
<!DOCTYPE svg PUBLIC "-//W3C//DTD SVG 1.1//EN" "http://www.w3.org/Graphics/SVG/1.1/DTD/svg11.dtd">
<svg version="1.1" id="twitter_1_" opacity="0.502" xmlns="http://www.w3.org/2000/svg" xmlns:xlink="http://www.w3.org/1999/xlink"
	 x="0px" y="0px" width="36px" height="36px" viewBox="0 0 36 36" enable-background="new 0 0 36 36" xml:space="preserve">
<g id="twitter">
	<g>
		<path fill-rule="evenodd" clip-rule="evenodd" fill="#267A95" d="M18.266,0.489c-9.764,0-17.678,7.914-17.678,17.678
			c0,9.763,7.915,17.678,17.678,17.678c9.763,0,17.677-7.915,17.677-17.678C35.942,8.403,28.028,0.489,18.266,0.489z M28.704,13.638
			c-0.374,0.367-0.798,0.641-1.081,0.802c0.346,2.651-0.6,6.143-3.661,9.591c-3.233,3.642-7.897,4.021-11.251,3.387
			c-2.672-0.505-4.454-1.755-4.454-1.755s3.226,0.457,6.343-1.908c-0.77-0.06-1.611-0.295-2.427-0.784
			c-1.428-0.857-1.673-2.407-1.673-2.407s0.571,0.245,0.979,0.245c0.408,0,0.857-0.204,0.857-0.204s-1.346-0.367-2.407-1.591
			c-0.888-1.024-0.938-2.938-0.938-2.938s0.489,0.326,0.897,0.449c0.408,0.122,0.897,0.163,0.897,0.163s-1.061-0.693-1.632-2.611
			c-0.571-1.917,0.53-3.508,0.53-3.508s1.806,2.791,5.141,3.956c1.623,0.566,2.953,0.745,3.908,0.775
			c-0.067-0.969-0.389-4.563,3.924-5.343c1.479-0.269,2.799,0.286,3.715,1.399c0.312-0.051,0.655-0.126,0.997-0.234
			c0.955-0.307,1.897-0.962,1.897-0.962s-0.237,0.818-0.712,1.525c-0.396,0.588-1.043,1.086-1.043,1.086s0.651-0.04,1.287-0.227
			c0.54-0.157,1.079-0.468,1.079-0.468S29.363,12.988,28.704,13.638z"/>
	</g>
</g>
</svg>
